%TF.GenerationSoftware,KiCad,Pcbnew,8.0.6*%
%TF.CreationDate,2025-01-19T15:27:18+01:00*%
%TF.ProjectId,obc_emulator_kicad,6f62635f-656d-4756-9c61-746f725f6b69,1*%
%TF.SameCoordinates,Original*%
%TF.FileFunction,Legend,Top*%
%TF.FilePolarity,Positive*%
%FSLAX46Y46*%
G04 Gerber Fmt 4.6, Leading zero omitted, Abs format (unit mm)*
G04 Created by KiCad (PCBNEW 8.0.6) date 2025-01-19 15:27:18*
%MOMM*%
%LPD*%
G01*
G04 APERTURE LIST*
%ADD10C,0.125000*%
%ADD11C,0.093750*%
%ADD12C,0.100000*%
%ADD13C,0.120000*%
G04 APERTURE END LIST*
D10*
G36*
X106447610Y-89857638D02*
G01*
X106535488Y-89849774D01*
X106541777Y-89885396D01*
X106553061Y-89918912D01*
X106564553Y-89940388D01*
X106587315Y-89966914D01*
X106615690Y-89987442D01*
X106635506Y-89997663D01*
X106670047Y-90010025D01*
X106703867Y-90016810D01*
X106739991Y-90019355D01*
X106743730Y-90019376D01*
X106778928Y-90017497D01*
X106813962Y-90011162D01*
X106837934Y-90003476D01*
X106869780Y-89987155D01*
X106896238Y-89962974D01*
X106898800Y-89959536D01*
X106914408Y-89928346D01*
X106918803Y-89898500D01*
X106912690Y-89863644D01*
X106899483Y-89840199D01*
X106874052Y-89817118D01*
X106841491Y-89800289D01*
X106836054Y-89798141D01*
X106801651Y-89787080D01*
X106764544Y-89777042D01*
X106728166Y-89767888D01*
X106710562Y-89763605D01*
X106676189Y-89754853D01*
X106641253Y-89744886D01*
X106608138Y-89733816D01*
X106574469Y-89719153D01*
X106542825Y-89699204D01*
X106517241Y-89676265D01*
X106499243Y-89652816D01*
X106484136Y-89621849D01*
X106476001Y-89588190D01*
X106474452Y-89564254D01*
X106478028Y-89528077D01*
X106488755Y-89493597D01*
X106504714Y-89463724D01*
X106526439Y-89436649D01*
X106553574Y-89413982D01*
X106586118Y-89395723D01*
X106593276Y-89392600D01*
X106627016Y-89380864D01*
X106662838Y-89372969D01*
X106700742Y-89368915D01*
X106722700Y-89368322D01*
X106760699Y-89369914D01*
X106796389Y-89374691D01*
X106829770Y-89382652D01*
X106860844Y-89393797D01*
X106892313Y-89409937D01*
X106922139Y-89432343D01*
X106946556Y-89459458D01*
X106952826Y-89468511D01*
X106970100Y-89500661D01*
X106981530Y-89535349D01*
X106987117Y-89572575D01*
X106987533Y-89580325D01*
X106898116Y-89587164D01*
X106891345Y-89551704D01*
X106877413Y-89518458D01*
X106854298Y-89489370D01*
X106849218Y-89484924D01*
X106819379Y-89466711D01*
X106785899Y-89456088D01*
X106750872Y-89451231D01*
X106726462Y-89450388D01*
X106691629Y-89451885D01*
X106657189Y-89457263D01*
X106622193Y-89469484D01*
X106603021Y-89481675D01*
X106579476Y-89506840D01*
X106565741Y-89540818D01*
X106564382Y-89556902D01*
X106571264Y-89591780D01*
X106591908Y-89619819D01*
X106624254Y-89638476D01*
X106659388Y-89651128D01*
X106692864Y-89660729D01*
X106732446Y-89670426D01*
X106766235Y-89678339D01*
X106802187Y-89687428D01*
X106837795Y-89697468D01*
X106873551Y-89709488D01*
X106888541Y-89715733D01*
X106920607Y-89732997D01*
X106950239Y-89755003D01*
X106975546Y-89782642D01*
X106979326Y-89788054D01*
X106996069Y-89819720D01*
X107005861Y-89854538D01*
X107008733Y-89888926D01*
X107005578Y-89923661D01*
X106996111Y-89957127D01*
X106980333Y-89989324D01*
X106976420Y-89995611D01*
X106953576Y-90024750D01*
X106925222Y-90049547D01*
X106894993Y-90068153D01*
X106883925Y-90073573D01*
X106848787Y-90087045D01*
X106815555Y-90095318D01*
X106780442Y-90100108D01*
X106748175Y-90101442D01*
X106713359Y-90100438D01*
X106675491Y-90096729D01*
X106640584Y-90090288D01*
X106604317Y-90079581D01*
X106587634Y-90072890D01*
X106557063Y-90056829D01*
X106526833Y-90034495D01*
X106501013Y-90007644D01*
X106486249Y-89987234D01*
X106468331Y-89953826D01*
X106455931Y-89918039D01*
X106449541Y-89884230D01*
X106447610Y-89857638D01*
G37*
G36*
X107413975Y-89379905D02*
G01*
X107451668Y-89382159D01*
X107486316Y-89386567D01*
X107500785Y-89389523D01*
X107536876Y-89400522D01*
X107569493Y-89415996D01*
X107598638Y-89435945D01*
X107604051Y-89440472D01*
X107630231Y-89465893D01*
X107652863Y-89494626D01*
X107671947Y-89526673D01*
X107687484Y-89562031D01*
X107698276Y-89595359D01*
X107706418Y-89630716D01*
X107711908Y-89668101D01*
X107714748Y-89707516D01*
X107715181Y-89730950D01*
X107714281Y-89765521D01*
X107711049Y-89802867D01*
X107705466Y-89837905D01*
X107696375Y-89874564D01*
X107685040Y-89908059D01*
X107670447Y-89941278D01*
X107651966Y-89972959D01*
X107648332Y-89978172D01*
X107625612Y-90006494D01*
X107599207Y-90031642D01*
X107584218Y-90042799D01*
X107553482Y-90059968D01*
X107520852Y-90072510D01*
X107499930Y-90078361D01*
X107464341Y-90085272D01*
X107428971Y-90089065D01*
X107394683Y-90090452D01*
X107386748Y-90090500D01*
X107132345Y-90090500D01*
X107132345Y-90008434D01*
X107225694Y-90008434D01*
X107376148Y-90008434D01*
X107413005Y-90007393D01*
X107448375Y-90003793D01*
X107483060Y-89996079D01*
X107485569Y-89995269D01*
X107517199Y-89981688D01*
X107545815Y-89961119D01*
X107548827Y-89958169D01*
X107571636Y-89929638D01*
X107588911Y-89897740D01*
X107600460Y-89867555D01*
X107609469Y-89833623D01*
X107615529Y-89795877D01*
X107618441Y-89759124D01*
X107619096Y-89729582D01*
X107617816Y-89689234D01*
X107613975Y-89652565D01*
X107606258Y-89614434D01*
X107595055Y-89581309D01*
X107582680Y-89556902D01*
X107561047Y-89526105D01*
X107536926Y-89501610D01*
X107507207Y-89481785D01*
X107494459Y-89476033D01*
X107459934Y-89467073D01*
X107425583Y-89463067D01*
X107388963Y-89461459D01*
X107373754Y-89461330D01*
X107225694Y-89461330D01*
X107225694Y-90008434D01*
X107132345Y-90008434D01*
X107132345Y-89379264D01*
X107375293Y-89379264D01*
X107413975Y-89379905D01*
G37*
G36*
X108421800Y-90090500D02*
G01*
X108315628Y-90090500D01*
X108233391Y-89871658D01*
X107938639Y-89871658D01*
X107861190Y-90090500D01*
X107762198Y-90090500D01*
X107874620Y-89795063D01*
X107965481Y-89795063D01*
X108204497Y-89795063D01*
X108130980Y-89599645D01*
X108118957Y-89567359D01*
X108106464Y-89532519D01*
X108094211Y-89496429D01*
X108083005Y-89460578D01*
X108080886Y-89453294D01*
X108073513Y-89487168D01*
X108064729Y-89520913D01*
X108054535Y-89554530D01*
X108042931Y-89588019D01*
X107965481Y-89795063D01*
X107874620Y-89795063D01*
X108032844Y-89379264D01*
X108133374Y-89379264D01*
X108421800Y-90090500D01*
G37*
D11*
G36*
X119331476Y-29822170D02*
G01*
X119249411Y-29822170D01*
X119248898Y-29523656D01*
X119512021Y-29523656D01*
X119534589Y-29553938D01*
X119554572Y-29584646D01*
X119571970Y-29615779D01*
X119586783Y-29647337D01*
X119594086Y-29665561D01*
X119606054Y-29702309D01*
X119614603Y-29739548D01*
X119619732Y-29777279D01*
X119621442Y-29815502D01*
X119619873Y-29853758D01*
X119615166Y-29890691D01*
X119607323Y-29926302D01*
X119596341Y-29960591D01*
X119582222Y-29993558D01*
X119576818Y-30004253D01*
X119558620Y-30034593D01*
X119537621Y-30062011D01*
X119509582Y-30090308D01*
X119482514Y-30111397D01*
X119452645Y-30129565D01*
X119447394Y-30132309D01*
X119414961Y-30147009D01*
X119381133Y-30158668D01*
X119345910Y-30167285D01*
X119309293Y-30172861D01*
X119271282Y-30175396D01*
X119258301Y-30175565D01*
X119219993Y-30174056D01*
X119182647Y-30169530D01*
X119146263Y-30161987D01*
X119110840Y-30151426D01*
X119076379Y-30137848D01*
X119065105Y-30132651D01*
X119033074Y-30115172D01*
X119004301Y-30095049D01*
X118978786Y-30072280D01*
X118953136Y-30042374D01*
X118931920Y-30008869D01*
X118917103Y-29977684D01*
X118905352Y-29944779D01*
X118896667Y-29910156D01*
X118891047Y-29873813D01*
X118888493Y-29835752D01*
X118888322Y-29822683D01*
X118889850Y-29785390D01*
X118894434Y-29749935D01*
X118902075Y-29716318D01*
X118912771Y-29684539D01*
X118928052Y-29651848D01*
X118948615Y-29620506D01*
X118972951Y-29594406D01*
X118980988Y-29587599D01*
X119010931Y-29567256D01*
X119042305Y-29551803D01*
X119077872Y-29539054D01*
X119095025Y-29534256D01*
X119118106Y-29618374D01*
X119084258Y-29630214D01*
X119053507Y-29645205D01*
X119034673Y-29657868D01*
X119010367Y-29682257D01*
X118991959Y-29711878D01*
X118985946Y-29725059D01*
X118974798Y-29759231D01*
X118968796Y-29796097D01*
X118967652Y-29822170D01*
X118969221Y-29856772D01*
X118974644Y-29892014D01*
X118985083Y-29926886D01*
X118987485Y-29932787D01*
X119004114Y-29965269D01*
X119026091Y-29994760D01*
X119039631Y-30008185D01*
X119066819Y-30029267D01*
X119098496Y-30047238D01*
X119110412Y-30052466D01*
X119144371Y-30064285D01*
X119179741Y-30072726D01*
X119216521Y-30077791D01*
X119254711Y-30079480D01*
X119289521Y-30078338D01*
X119327367Y-30074118D01*
X119362235Y-30066790D01*
X119398438Y-30054609D01*
X119415081Y-30046995D01*
X119445236Y-30028915D01*
X119474204Y-30004181D01*
X119497925Y-29974795D01*
X119510824Y-29952620D01*
X119524512Y-29921108D01*
X119535237Y-29884507D01*
X119541012Y-29846690D01*
X119542112Y-29820802D01*
X119539807Y-29783169D01*
X119532895Y-29746136D01*
X119522734Y-29713321D01*
X119518518Y-29702491D01*
X119503471Y-29669112D01*
X119486225Y-29638720D01*
X119468252Y-29614954D01*
X119331476Y-29614954D01*
X119331476Y-29822170D01*
G37*
G36*
X119610500Y-29391154D02*
G01*
X118899264Y-29391154D01*
X118899264Y-29295582D01*
X119457652Y-28925261D01*
X118899264Y-28925261D01*
X118899264Y-28835844D01*
X119610500Y-28835844D01*
X119610500Y-28931416D01*
X119051599Y-29301737D01*
X119610500Y-29301737D01*
X119610500Y-29391154D01*
G37*
G36*
X119285521Y-28101231D02*
G01*
X119322867Y-28104463D01*
X119357905Y-28110047D01*
X119394564Y-28119138D01*
X119428059Y-28130472D01*
X119461278Y-28145065D01*
X119492959Y-28163546D01*
X119498172Y-28167180D01*
X119526494Y-28189901D01*
X119551642Y-28216305D01*
X119562799Y-28231294D01*
X119579968Y-28262031D01*
X119592510Y-28294661D01*
X119598361Y-28315582D01*
X119605272Y-28351172D01*
X119609065Y-28386541D01*
X119610452Y-28420829D01*
X119610500Y-28428764D01*
X119610500Y-28683168D01*
X118899264Y-28683168D01*
X118899264Y-28441758D01*
X118981330Y-28441758D01*
X118981330Y-28589818D01*
X119528434Y-28589818D01*
X119528434Y-28439364D01*
X119527393Y-28402507D01*
X119523793Y-28367138D01*
X119516079Y-28332452D01*
X119515269Y-28329944D01*
X119501688Y-28298313D01*
X119481119Y-28269697D01*
X119478169Y-28266685D01*
X119449638Y-28243876D01*
X119417740Y-28226601D01*
X119387555Y-28215052D01*
X119353623Y-28206043D01*
X119315877Y-28199983D01*
X119279124Y-28197071D01*
X119249582Y-28196416D01*
X119209234Y-28197696D01*
X119172565Y-28201537D01*
X119134434Y-28209254D01*
X119101309Y-28220457D01*
X119076902Y-28232833D01*
X119046105Y-28254465D01*
X119021610Y-28278586D01*
X119001785Y-28308305D01*
X118996033Y-28321053D01*
X118987073Y-28355578D01*
X118983067Y-28389929D01*
X118981459Y-28426549D01*
X118981330Y-28441758D01*
X118899264Y-28441758D01*
X118899264Y-28440219D01*
X118899905Y-28401537D01*
X118902159Y-28363844D01*
X118906567Y-28329196D01*
X118909523Y-28314727D01*
X118920522Y-28278637D01*
X118935996Y-28246019D01*
X118955945Y-28216874D01*
X118960472Y-28211461D01*
X118985893Y-28185282D01*
X119014626Y-28162649D01*
X119046673Y-28143565D01*
X119082031Y-28128028D01*
X119115359Y-28117236D01*
X119150716Y-28109094D01*
X119188101Y-28103604D01*
X119227516Y-28100764D01*
X119250950Y-28100331D01*
X119285521Y-28101231D01*
G37*
G36*
X88320735Y-65679864D02*
G01*
X88319810Y-65718919D01*
X88317037Y-65753654D01*
X88311603Y-65788061D01*
X88301415Y-65823137D01*
X88284755Y-65854528D01*
X88261106Y-65881232D01*
X88233540Y-65901441D01*
X88202101Y-65916949D01*
X88168692Y-65926713D01*
X88133312Y-65930733D01*
X88126000Y-65930848D01*
X88089455Y-65927813D01*
X88055902Y-65918709D01*
X88021732Y-65901212D01*
X87997772Y-65882293D01*
X87974146Y-65854713D01*
X87955244Y-65820530D01*
X87942578Y-65785202D01*
X87934600Y-65750897D01*
X87931607Y-65732352D01*
X87914927Y-65763104D01*
X87896387Y-65788601D01*
X87870952Y-65813706D01*
X87841877Y-65837942D01*
X87812598Y-65859012D01*
X87802183Y-65865879D01*
X87609500Y-65988636D01*
X87609500Y-65871179D01*
X87756876Y-65778001D01*
X87786892Y-65758468D01*
X87816189Y-65738638D01*
X87845569Y-65717488D01*
X87854500Y-65710639D01*
X87881765Y-65687034D01*
X87901858Y-65663280D01*
X87902953Y-65661057D01*
X88003414Y-65661057D01*
X88004733Y-65698300D01*
X88009231Y-65732980D01*
X88016921Y-65761075D01*
X88034445Y-65792832D01*
X88060005Y-65815956D01*
X88093061Y-65830631D01*
X88124632Y-65834763D01*
X88160295Y-65829642D01*
X88190862Y-65814279D01*
X88208407Y-65798346D01*
X88227194Y-65768437D01*
X88237506Y-65732587D01*
X88241115Y-65697968D01*
X88241405Y-65683625D01*
X88241405Y-65460510D01*
X88003414Y-65460510D01*
X88003414Y-65661057D01*
X87902953Y-65661057D01*
X87917502Y-65631512D01*
X87920665Y-65620708D01*
X87923871Y-65585510D01*
X87924084Y-65568734D01*
X87924084Y-65460510D01*
X87609500Y-65460510D01*
X87609500Y-65367331D01*
X88320735Y-65367331D01*
X88320735Y-65679864D01*
G37*
G36*
X87609500Y-66001288D02*
G01*
X87980162Y-66273985D01*
X88320735Y-66033601D01*
X88320735Y-66144560D01*
X88140019Y-66272617D01*
X88110421Y-66293199D01*
X88079793Y-66313396D01*
X88053338Y-66329208D01*
X88082670Y-66348130D01*
X88112963Y-66369504D01*
X88133693Y-66385115D01*
X88320735Y-66526849D01*
X88320735Y-66628406D01*
X87985463Y-66380670D01*
X87609500Y-66647554D01*
X87609500Y-66532149D01*
X87860996Y-66354854D01*
X87889607Y-66335780D01*
X87908184Y-66324079D01*
X87879106Y-66306020D01*
X87855183Y-66290398D01*
X87609500Y-66113444D01*
X87609500Y-66001288D01*
G37*
G36*
X87888523Y-67827829D02*
G01*
X87970588Y-67827829D01*
X87971101Y-68126343D01*
X87707978Y-68126343D01*
X87685410Y-68096061D01*
X87665427Y-68065353D01*
X87648029Y-68034220D01*
X87633216Y-68002662D01*
X87625913Y-67984438D01*
X87613945Y-67947690D01*
X87605396Y-67910451D01*
X87600267Y-67872720D01*
X87598557Y-67834497D01*
X87600126Y-67796241D01*
X87604833Y-67759308D01*
X87612676Y-67723697D01*
X87623658Y-67689408D01*
X87637777Y-67656441D01*
X87643181Y-67645746D01*
X87661379Y-67615406D01*
X87682378Y-67587988D01*
X87710417Y-67559691D01*
X87737485Y-67538602D01*
X87767354Y-67520434D01*
X87772605Y-67517690D01*
X87805038Y-67502990D01*
X87838866Y-67491331D01*
X87874089Y-67482714D01*
X87910706Y-67477138D01*
X87948717Y-67474603D01*
X87961698Y-67474434D01*
X88000006Y-67475943D01*
X88037352Y-67480469D01*
X88073736Y-67488012D01*
X88109159Y-67498573D01*
X88143620Y-67512151D01*
X88154894Y-67517348D01*
X88186925Y-67534827D01*
X88215698Y-67554950D01*
X88241213Y-67577719D01*
X88266863Y-67607625D01*
X88288079Y-67641130D01*
X88302896Y-67672315D01*
X88314647Y-67705220D01*
X88323332Y-67739843D01*
X88328952Y-67776186D01*
X88331506Y-67814247D01*
X88331677Y-67827316D01*
X88330149Y-67864609D01*
X88325565Y-67900064D01*
X88317924Y-67933681D01*
X88307228Y-67965460D01*
X88291947Y-67998151D01*
X88271384Y-68029493D01*
X88247048Y-68055593D01*
X88239011Y-68062400D01*
X88209068Y-68082743D01*
X88177694Y-68098196D01*
X88142127Y-68110945D01*
X88124974Y-68115743D01*
X88101893Y-68031625D01*
X88135741Y-68019785D01*
X88166492Y-68004794D01*
X88185326Y-67992131D01*
X88209632Y-67967742D01*
X88228040Y-67938121D01*
X88234053Y-67924940D01*
X88245201Y-67890768D01*
X88251203Y-67853902D01*
X88252347Y-67827829D01*
X88250778Y-67793227D01*
X88245355Y-67757985D01*
X88234916Y-67723113D01*
X88232514Y-67717212D01*
X88215885Y-67684730D01*
X88193908Y-67655239D01*
X88180368Y-67641814D01*
X88153180Y-67620732D01*
X88121503Y-67602761D01*
X88109587Y-67597533D01*
X88075628Y-67585714D01*
X88040258Y-67577273D01*
X88003478Y-67572208D01*
X87965288Y-67570519D01*
X87930478Y-67571661D01*
X87892632Y-67575881D01*
X87857764Y-67583209D01*
X87821561Y-67595390D01*
X87804918Y-67603004D01*
X87774763Y-67621084D01*
X87745795Y-67645818D01*
X87722074Y-67675204D01*
X87709175Y-67697379D01*
X87695487Y-67728891D01*
X87684762Y-67765492D01*
X87678987Y-67803309D01*
X87677887Y-67829197D01*
X87680192Y-67866830D01*
X87687104Y-67903863D01*
X87697265Y-67936678D01*
X87701481Y-67947508D01*
X87716528Y-67980887D01*
X87733774Y-68011279D01*
X87751747Y-68035045D01*
X87888523Y-68035045D01*
X87888523Y-67827829D01*
G37*
G36*
X87609500Y-68258845D02*
G01*
X88320735Y-68258845D01*
X88320735Y-68354417D01*
X87762347Y-68724738D01*
X88320735Y-68724738D01*
X88320735Y-68814155D01*
X87609500Y-68814155D01*
X87609500Y-68718583D01*
X88168400Y-68348262D01*
X87609500Y-68348262D01*
X87609500Y-68258845D01*
G37*
G36*
X88320735Y-69209780D02*
G01*
X88320094Y-69248462D01*
X88317840Y-69286155D01*
X88313432Y-69320803D01*
X88310476Y-69335272D01*
X88299477Y-69371362D01*
X88284003Y-69403980D01*
X88264054Y-69433125D01*
X88259527Y-69438538D01*
X88234106Y-69464717D01*
X88205373Y-69487350D01*
X88173326Y-69506434D01*
X88137968Y-69521971D01*
X88104640Y-69532763D01*
X88069283Y-69540905D01*
X88031898Y-69546395D01*
X87992483Y-69549235D01*
X87969049Y-69549668D01*
X87934478Y-69548768D01*
X87897132Y-69545536D01*
X87862094Y-69539952D01*
X87825435Y-69530861D01*
X87791940Y-69519527D01*
X87758721Y-69504934D01*
X87727040Y-69486453D01*
X87721827Y-69482819D01*
X87693505Y-69460098D01*
X87668357Y-69433694D01*
X87657200Y-69418705D01*
X87640031Y-69387968D01*
X87627489Y-69355338D01*
X87621638Y-69334417D01*
X87614727Y-69298827D01*
X87610934Y-69263458D01*
X87609547Y-69229170D01*
X87609500Y-69221235D01*
X87609500Y-69210635D01*
X87691565Y-69210635D01*
X87692606Y-69247492D01*
X87696206Y-69282861D01*
X87703920Y-69317547D01*
X87704730Y-69320055D01*
X87718311Y-69351686D01*
X87738880Y-69380302D01*
X87741830Y-69383314D01*
X87770361Y-69406123D01*
X87802259Y-69423398D01*
X87832444Y-69434947D01*
X87866376Y-69443956D01*
X87904122Y-69450016D01*
X87940875Y-69452928D01*
X87970417Y-69453583D01*
X88010765Y-69452303D01*
X88047434Y-69448462D01*
X88085565Y-69440745D01*
X88118690Y-69429542D01*
X88143097Y-69417166D01*
X88173894Y-69395534D01*
X88198389Y-69371413D01*
X88218214Y-69341694D01*
X88223966Y-69328946D01*
X88232926Y-69294421D01*
X88236932Y-69260070D01*
X88238540Y-69223450D01*
X88238669Y-69208241D01*
X88238669Y-69060181D01*
X87691565Y-69060181D01*
X87691565Y-69210635D01*
X87609500Y-69210635D01*
X87609500Y-68966831D01*
X88320735Y-68966831D01*
X88320735Y-69209780D01*
G37*
G36*
X87888523Y-29727829D02*
G01*
X87970588Y-29727829D01*
X87971101Y-30026343D01*
X87707978Y-30026343D01*
X87685410Y-29996061D01*
X87665427Y-29965353D01*
X87648029Y-29934220D01*
X87633216Y-29902662D01*
X87625913Y-29884438D01*
X87613945Y-29847690D01*
X87605396Y-29810451D01*
X87600267Y-29772720D01*
X87598557Y-29734497D01*
X87600126Y-29696241D01*
X87604833Y-29659308D01*
X87612676Y-29623697D01*
X87623658Y-29589408D01*
X87637777Y-29556441D01*
X87643181Y-29545746D01*
X87661379Y-29515406D01*
X87682378Y-29487988D01*
X87710417Y-29459691D01*
X87737485Y-29438602D01*
X87767354Y-29420434D01*
X87772605Y-29417690D01*
X87805038Y-29402990D01*
X87838866Y-29391331D01*
X87874089Y-29382714D01*
X87910706Y-29377138D01*
X87948717Y-29374603D01*
X87961698Y-29374434D01*
X88000006Y-29375943D01*
X88037352Y-29380469D01*
X88073736Y-29388012D01*
X88109159Y-29398573D01*
X88143620Y-29412151D01*
X88154894Y-29417348D01*
X88186925Y-29434827D01*
X88215698Y-29454950D01*
X88241213Y-29477719D01*
X88266863Y-29507625D01*
X88288079Y-29541130D01*
X88302896Y-29572315D01*
X88314647Y-29605220D01*
X88323332Y-29639843D01*
X88328952Y-29676186D01*
X88331506Y-29714247D01*
X88331677Y-29727316D01*
X88330149Y-29764609D01*
X88325565Y-29800064D01*
X88317924Y-29833681D01*
X88307228Y-29865460D01*
X88291947Y-29898151D01*
X88271384Y-29929493D01*
X88247048Y-29955593D01*
X88239011Y-29962400D01*
X88209068Y-29982743D01*
X88177694Y-29998196D01*
X88142127Y-30010945D01*
X88124974Y-30015743D01*
X88101893Y-29931625D01*
X88135741Y-29919785D01*
X88166492Y-29904794D01*
X88185326Y-29892131D01*
X88209632Y-29867742D01*
X88228040Y-29838121D01*
X88234053Y-29824940D01*
X88245201Y-29790768D01*
X88251203Y-29753902D01*
X88252347Y-29727829D01*
X88250778Y-29693227D01*
X88245355Y-29657985D01*
X88234916Y-29623113D01*
X88232514Y-29617212D01*
X88215885Y-29584730D01*
X88193908Y-29555239D01*
X88180368Y-29541814D01*
X88153180Y-29520732D01*
X88121503Y-29502761D01*
X88109587Y-29497533D01*
X88075628Y-29485714D01*
X88040258Y-29477273D01*
X88003478Y-29472208D01*
X87965288Y-29470519D01*
X87930478Y-29471661D01*
X87892632Y-29475881D01*
X87857764Y-29483209D01*
X87821561Y-29495390D01*
X87804918Y-29503004D01*
X87774763Y-29521084D01*
X87745795Y-29545818D01*
X87722074Y-29575204D01*
X87709175Y-29597379D01*
X87695487Y-29628891D01*
X87684762Y-29665492D01*
X87678987Y-29703309D01*
X87677887Y-29729197D01*
X87680192Y-29766830D01*
X87687104Y-29803863D01*
X87697265Y-29836678D01*
X87701481Y-29847508D01*
X87716528Y-29880887D01*
X87733774Y-29911279D01*
X87751747Y-29935045D01*
X87888523Y-29935045D01*
X87888523Y-29727829D01*
G37*
G36*
X87609500Y-30158845D02*
G01*
X88320735Y-30158845D01*
X88320735Y-30254417D01*
X87762347Y-30624738D01*
X88320735Y-30624738D01*
X88320735Y-30714155D01*
X87609500Y-30714155D01*
X87609500Y-30618583D01*
X88168400Y-30248262D01*
X87609500Y-30248262D01*
X87609500Y-30158845D01*
G37*
G36*
X88320735Y-31109780D02*
G01*
X88320094Y-31148462D01*
X88317840Y-31186155D01*
X88313432Y-31220803D01*
X88310476Y-31235272D01*
X88299477Y-31271362D01*
X88284003Y-31303980D01*
X88264054Y-31333125D01*
X88259527Y-31338538D01*
X88234106Y-31364717D01*
X88205373Y-31387350D01*
X88173326Y-31406434D01*
X88137968Y-31421971D01*
X88104640Y-31432763D01*
X88069283Y-31440905D01*
X88031898Y-31446395D01*
X87992483Y-31449235D01*
X87969049Y-31449668D01*
X87934478Y-31448768D01*
X87897132Y-31445536D01*
X87862094Y-31439952D01*
X87825435Y-31430861D01*
X87791940Y-31419527D01*
X87758721Y-31404934D01*
X87727040Y-31386453D01*
X87721827Y-31382819D01*
X87693505Y-31360098D01*
X87668357Y-31333694D01*
X87657200Y-31318705D01*
X87640031Y-31287968D01*
X87627489Y-31255338D01*
X87621638Y-31234417D01*
X87614727Y-31198827D01*
X87610934Y-31163458D01*
X87609547Y-31129170D01*
X87609500Y-31121235D01*
X87609500Y-31110635D01*
X87691565Y-31110635D01*
X87692606Y-31147492D01*
X87696206Y-31182861D01*
X87703920Y-31217547D01*
X87704730Y-31220055D01*
X87718311Y-31251686D01*
X87738880Y-31280302D01*
X87741830Y-31283314D01*
X87770361Y-31306123D01*
X87802259Y-31323398D01*
X87832444Y-31334947D01*
X87866376Y-31343956D01*
X87904122Y-31350016D01*
X87940875Y-31352928D01*
X87970417Y-31353583D01*
X88010765Y-31352303D01*
X88047434Y-31348462D01*
X88085565Y-31340745D01*
X88118690Y-31329542D01*
X88143097Y-31317166D01*
X88173894Y-31295534D01*
X88198389Y-31271413D01*
X88218214Y-31241694D01*
X88223966Y-31228946D01*
X88232926Y-31194421D01*
X88236932Y-31160070D01*
X88238540Y-31123450D01*
X88238669Y-31108241D01*
X88238669Y-30960181D01*
X87691565Y-30960181D01*
X87691565Y-31110635D01*
X87609500Y-31110635D01*
X87609500Y-30866831D01*
X88320735Y-30866831D01*
X88320735Y-31109780D01*
G37*
G36*
X88320735Y-27579864D02*
G01*
X88319810Y-27618919D01*
X88317037Y-27653654D01*
X88311603Y-27688061D01*
X88301415Y-27723137D01*
X88284755Y-27754528D01*
X88261106Y-27781232D01*
X88233540Y-27801441D01*
X88202101Y-27816949D01*
X88168692Y-27826713D01*
X88133312Y-27830733D01*
X88126000Y-27830848D01*
X88089455Y-27827813D01*
X88055902Y-27818709D01*
X88021732Y-27801212D01*
X87997772Y-27782293D01*
X87974146Y-27754713D01*
X87955244Y-27720530D01*
X87942578Y-27685202D01*
X87934600Y-27650897D01*
X87931607Y-27632352D01*
X87914927Y-27663104D01*
X87896387Y-27688601D01*
X87870952Y-27713706D01*
X87841877Y-27737942D01*
X87812598Y-27759012D01*
X87802183Y-27765879D01*
X87609500Y-27888636D01*
X87609500Y-27771179D01*
X87756876Y-27678001D01*
X87786892Y-27658468D01*
X87816189Y-27638638D01*
X87845569Y-27617488D01*
X87854500Y-27610639D01*
X87881765Y-27587034D01*
X87901858Y-27563280D01*
X87902953Y-27561057D01*
X88003414Y-27561057D01*
X88004733Y-27598300D01*
X88009231Y-27632980D01*
X88016921Y-27661075D01*
X88034445Y-27692832D01*
X88060005Y-27715956D01*
X88093061Y-27730631D01*
X88124632Y-27734763D01*
X88160295Y-27729642D01*
X88190862Y-27714279D01*
X88208407Y-27698346D01*
X88227194Y-27668437D01*
X88237506Y-27632587D01*
X88241115Y-27597968D01*
X88241405Y-27583625D01*
X88241405Y-27360510D01*
X88003414Y-27360510D01*
X88003414Y-27561057D01*
X87902953Y-27561057D01*
X87917502Y-27531512D01*
X87920665Y-27520708D01*
X87923871Y-27485510D01*
X87924084Y-27468734D01*
X87924084Y-27360510D01*
X87609500Y-27360510D01*
X87609500Y-27267331D01*
X88320735Y-27267331D01*
X88320735Y-27579864D01*
G37*
G36*
X87609500Y-27901288D02*
G01*
X87980162Y-28173985D01*
X88320735Y-27933601D01*
X88320735Y-28044560D01*
X88140019Y-28172617D01*
X88110421Y-28193199D01*
X88079793Y-28213396D01*
X88053338Y-28229208D01*
X88082670Y-28248130D01*
X88112963Y-28269504D01*
X88133693Y-28285115D01*
X88320735Y-28426849D01*
X88320735Y-28528406D01*
X87985463Y-28280670D01*
X87609500Y-28547554D01*
X87609500Y-28432149D01*
X87860996Y-28254854D01*
X87889607Y-28235780D01*
X87908184Y-28224079D01*
X87879106Y-28206020D01*
X87855183Y-28190398D01*
X87609500Y-28013444D01*
X87609500Y-27901288D01*
G37*
D10*
G36*
X101626801Y-90090500D02*
G01*
X101353591Y-89379264D01*
X101454634Y-89379264D01*
X101637914Y-89896449D01*
X101649752Y-89930833D01*
X101660454Y-89963972D01*
X101671013Y-89999335D01*
X101674843Y-90013050D01*
X101685602Y-89976612D01*
X101696142Y-89943818D01*
X101707493Y-89911024D01*
X101712799Y-89896449D01*
X101903259Y-89379264D01*
X101998490Y-89379264D01*
X101722544Y-90090500D01*
X101626801Y-90090500D01*
G37*
G36*
X102258721Y-89567720D02*
G01*
X102294158Y-89575041D01*
X102326890Y-89587243D01*
X102356917Y-89604325D01*
X102384240Y-89626288D01*
X102392746Y-89634693D01*
X102415465Y-89662523D01*
X102433483Y-89694079D01*
X102446800Y-89729361D01*
X102455418Y-89768371D01*
X102459008Y-89803725D01*
X102459596Y-89826180D01*
X102458556Y-89861817D01*
X102454714Y-89899641D01*
X102448042Y-89933423D01*
X102436950Y-89967083D01*
X102430018Y-89981934D01*
X102411244Y-90011861D01*
X102388196Y-90037785D01*
X102360874Y-90059706D01*
X102343849Y-90070154D01*
X102311288Y-90085278D01*
X102277076Y-90095453D01*
X102241215Y-90100678D01*
X102220580Y-90101442D01*
X102181823Y-90099013D01*
X102145951Y-90091728D01*
X102112965Y-90079587D01*
X102082863Y-90062589D01*
X102055647Y-90040734D01*
X102047216Y-90032370D01*
X102024730Y-90004328D01*
X102006896Y-89972007D01*
X101993715Y-89935406D01*
X101986284Y-89901636D01*
X101982084Y-89864894D01*
X101981051Y-89833361D01*
X101981057Y-89833190D01*
X102070126Y-89833190D01*
X102071629Y-89868504D01*
X102077180Y-89905299D01*
X102088534Y-89941539D01*
X102105230Y-89971582D01*
X102112868Y-89981250D01*
X102138669Y-90004969D01*
X102171461Y-90022220D01*
X102208593Y-90029887D01*
X102220580Y-90030318D01*
X102255118Y-90026410D01*
X102289466Y-90012899D01*
X102319573Y-89989738D01*
X102327778Y-89980908D01*
X102348439Y-89949017D01*
X102361129Y-89913789D01*
X102367849Y-89877653D01*
X102370353Y-89842733D01*
X102370520Y-89830283D01*
X102369006Y-89796078D01*
X102363410Y-89760306D01*
X102351965Y-89724872D01*
X102332653Y-89691958D01*
X102327436Y-89685643D01*
X102301634Y-89661840D01*
X102269062Y-89644530D01*
X102232384Y-89636836D01*
X102220580Y-89636403D01*
X102185793Y-89640271D01*
X102151265Y-89653641D01*
X102121078Y-89676562D01*
X102112868Y-89685301D01*
X102092207Y-89716768D01*
X102079518Y-89751392D01*
X102072797Y-89786825D01*
X102070293Y-89821011D01*
X102070126Y-89833190D01*
X101981057Y-89833190D01*
X101982285Y-89798908D01*
X101987299Y-89759079D01*
X101996169Y-89722849D01*
X102008897Y-89690217D01*
X102029261Y-89655808D01*
X102055179Y-89626580D01*
X102060039Y-89622213D01*
X102090219Y-89600029D01*
X102123165Y-89583294D01*
X102158876Y-89572007D01*
X102197352Y-89566169D01*
X102220580Y-89565280D01*
X102258721Y-89567720D01*
G37*
G36*
X102893005Y-90090500D02*
G01*
X102893005Y-90015444D01*
X102869126Y-90044670D01*
X102842243Y-90067849D01*
X102812353Y-90084981D01*
X102779459Y-90096067D01*
X102743559Y-90101106D01*
X102730925Y-90101442D01*
X102695240Y-90098563D01*
X102661529Y-90089929D01*
X102646637Y-90084003D01*
X102616207Y-90067042D01*
X102590808Y-90043491D01*
X102588336Y-90040234D01*
X102571357Y-90008930D01*
X102561665Y-89975779D01*
X102557529Y-89940038D01*
X102556411Y-89904583D01*
X102556365Y-89894397D01*
X102556365Y-89576222D01*
X102643046Y-89576222D01*
X102643046Y-89861742D01*
X102643466Y-89896680D01*
X102645329Y-89932283D01*
X102648347Y-89953894D01*
X102662096Y-89986258D01*
X102682882Y-90007921D01*
X102714561Y-90023262D01*
X102748364Y-90027583D01*
X102783734Y-90023187D01*
X102817076Y-90010001D01*
X102821368Y-90007579D01*
X102849030Y-89985472D01*
X102868846Y-89954853D01*
X102869753Y-89952698D01*
X102878940Y-89919335D01*
X102883056Y-89883038D01*
X102883943Y-89851996D01*
X102883943Y-89576222D01*
X102970454Y-89576222D01*
X102970454Y-90090500D01*
X102893005Y-90090500D01*
G37*
G36*
X103292390Y-90011169D02*
G01*
X103304871Y-90090500D01*
X103270250Y-90098706D01*
X103239561Y-90101442D01*
X103204720Y-90098959D01*
X103171445Y-90089085D01*
X103166386Y-90086396D01*
X103139912Y-90063703D01*
X103129798Y-90046560D01*
X103122312Y-90011496D01*
X103119868Y-89974804D01*
X103119369Y-89942781D01*
X103119369Y-89644610D01*
X103055768Y-89644610D01*
X103055768Y-89576222D01*
X103119369Y-89576222D01*
X103119369Y-89452098D01*
X103205367Y-89401148D01*
X103205367Y-89576222D01*
X103292390Y-89576222D01*
X103292390Y-89644610D01*
X103205367Y-89644610D01*
X103205367Y-89949791D01*
X103206934Y-89985280D01*
X103209812Y-89998518D01*
X103224686Y-90015786D01*
X103254435Y-90022112D01*
X103288048Y-90013125D01*
X103292390Y-90011169D01*
G37*
D11*
G36*
X87794831Y-54843677D02*
G01*
X87806457Y-54930188D01*
X87772658Y-54938929D01*
X87740689Y-54951879D01*
X87710321Y-54972188D01*
X87701652Y-54980795D01*
X87682170Y-55009911D01*
X87671679Y-55043402D01*
X87669681Y-55068161D01*
X87673822Y-55104545D01*
X87686244Y-55137190D01*
X87706947Y-55166095D01*
X87712081Y-55171427D01*
X87740552Y-55193606D01*
X87772963Y-55207571D01*
X87809314Y-55213321D01*
X87817057Y-55213485D01*
X87852296Y-55209679D01*
X87886315Y-55196698D01*
X87915365Y-55174504D01*
X87937461Y-55145220D01*
X87950385Y-55110965D01*
X87954175Y-55075513D01*
X87950435Y-55040063D01*
X87944601Y-55014305D01*
X88026153Y-55024051D01*
X88025299Y-55037899D01*
X88028652Y-55074649D01*
X88038713Y-55108733D01*
X88053680Y-55137404D01*
X88076828Y-55162615D01*
X88110375Y-55178182D01*
X88141216Y-55181685D01*
X88176626Y-55176352D01*
X88208827Y-55158681D01*
X88218837Y-55149372D01*
X88238762Y-55120152D01*
X88248529Y-55084725D01*
X88249611Y-55066280D01*
X88245187Y-55030809D01*
X88230410Y-54997700D01*
X88218153Y-54982163D01*
X88190135Y-54960292D01*
X88156680Y-54946200D01*
X88123777Y-54938908D01*
X88139165Y-54852397D01*
X88175148Y-54861217D01*
X88207400Y-54873916D01*
X88239692Y-54893176D01*
X88267112Y-54917502D01*
X88273205Y-54924375D01*
X88293999Y-54954220D01*
X88308852Y-54987506D01*
X88317764Y-55024232D01*
X88320688Y-55059190D01*
X88320735Y-55064399D01*
X88318330Y-55099525D01*
X88310132Y-55136119D01*
X88296115Y-55170572D01*
X88277047Y-55201247D01*
X88253697Y-55226507D01*
X88228753Y-55244773D01*
X88196079Y-55260505D01*
X88161914Y-55268976D01*
X88138310Y-55270589D01*
X88102685Y-55266554D01*
X88069713Y-55254449D01*
X88055389Y-55246141D01*
X88027617Y-55222354D01*
X88006440Y-55193435D01*
X87996063Y-55173478D01*
X87985413Y-55206459D01*
X87967775Y-55237901D01*
X87944027Y-55263867D01*
X87935710Y-55270589D01*
X87904819Y-55288892D01*
X87869419Y-55300416D01*
X87833705Y-55304991D01*
X87820989Y-55305296D01*
X87781648Y-55302073D01*
X87745007Y-55292403D01*
X87711066Y-55276286D01*
X87679824Y-55253722D01*
X87663184Y-55237934D01*
X87641221Y-55211429D01*
X87621341Y-55177361D01*
X87607646Y-55139907D01*
X87600829Y-55105107D01*
X87598557Y-55067819D01*
X87601167Y-55028708D01*
X87608997Y-54992608D01*
X87622046Y-54959519D01*
X87640314Y-54929440D01*
X87653097Y-54913604D01*
X87678579Y-54889337D01*
X87707153Y-54870094D01*
X87738820Y-54855874D01*
X87773580Y-54846677D01*
X87794831Y-54843677D01*
G37*
G36*
X87609500Y-55436772D02*
G01*
X87707978Y-55436772D01*
X87707978Y-55535422D01*
X87609500Y-55535422D01*
X87609500Y-55436772D01*
G37*
G36*
X87794831Y-55660914D02*
G01*
X87806457Y-55747425D01*
X87772658Y-55756165D01*
X87740689Y-55769115D01*
X87710321Y-55789424D01*
X87701652Y-55798032D01*
X87682170Y-55827147D01*
X87671679Y-55860639D01*
X87669681Y-55885397D01*
X87673822Y-55921782D01*
X87686244Y-55954427D01*
X87706947Y-55983331D01*
X87712081Y-55988663D01*
X87740552Y-56010843D01*
X87772963Y-56024807D01*
X87809314Y-56030558D01*
X87817057Y-56030722D01*
X87852296Y-56026915D01*
X87886315Y-56013934D01*
X87915365Y-55991741D01*
X87937461Y-55962456D01*
X87950385Y-55928202D01*
X87954175Y-55892749D01*
X87950435Y-55857300D01*
X87944601Y-55831542D01*
X88026153Y-55841287D01*
X88025299Y-55855136D01*
X88028652Y-55891886D01*
X88038713Y-55925969D01*
X88053680Y-55954640D01*
X88076828Y-55979851D01*
X88110375Y-55995419D01*
X88141216Y-55998921D01*
X88176626Y-55993589D01*
X88208827Y-55975917D01*
X88218837Y-55966608D01*
X88238762Y-55937389D01*
X88248529Y-55901961D01*
X88249611Y-55883517D01*
X88245187Y-55848046D01*
X88230410Y-55814937D01*
X88218153Y-55799399D01*
X88190135Y-55777529D01*
X88156680Y-55763437D01*
X88123777Y-55756144D01*
X88139165Y-55669633D01*
X88175148Y-55678454D01*
X88207400Y-55691152D01*
X88239692Y-55710413D01*
X88267112Y-55734739D01*
X88273205Y-55741612D01*
X88293999Y-55771457D01*
X88308852Y-55804742D01*
X88317764Y-55841469D01*
X88320688Y-55876427D01*
X88320735Y-55881636D01*
X88318330Y-55916762D01*
X88310132Y-55953356D01*
X88296115Y-55987808D01*
X88277047Y-56018483D01*
X88253697Y-56043744D01*
X88228753Y-56062009D01*
X88196079Y-56077741D01*
X88161914Y-56086212D01*
X88138310Y-56087826D01*
X88102685Y-56083791D01*
X88069713Y-56071686D01*
X88055389Y-56063377D01*
X88027617Y-56039590D01*
X88006440Y-56010671D01*
X87996063Y-55990715D01*
X87985413Y-56023695D01*
X87967775Y-56055138D01*
X87944027Y-56081104D01*
X87935710Y-56087826D01*
X87904819Y-56106128D01*
X87869419Y-56117652D01*
X87833705Y-56122228D01*
X87820989Y-56122533D01*
X87781648Y-56119309D01*
X87745007Y-56109639D01*
X87711066Y-56093522D01*
X87679824Y-56070959D01*
X87663184Y-56055171D01*
X87641221Y-56028666D01*
X87621341Y-55994598D01*
X87607646Y-55957143D01*
X87600829Y-55922344D01*
X87598557Y-55885055D01*
X87601167Y-55845945D01*
X87608997Y-55809845D01*
X87622046Y-55776755D01*
X87640314Y-55746677D01*
X87653097Y-55730841D01*
X87678579Y-55706574D01*
X87707153Y-55687331D01*
X87738820Y-55673111D01*
X87773580Y-55663914D01*
X87794831Y-55660914D01*
G37*
G36*
X87609500Y-56442076D02*
G01*
X88320735Y-56168866D01*
X88320735Y-56269909D01*
X87803550Y-56453189D01*
X87769166Y-56465027D01*
X87736027Y-56475729D01*
X87700664Y-56486287D01*
X87686949Y-56490118D01*
X87723387Y-56500877D01*
X87756181Y-56511417D01*
X87788975Y-56522768D01*
X87803550Y-56528074D01*
X88320735Y-56718534D01*
X88320735Y-56813764D01*
X87609500Y-56537819D01*
X87609500Y-56442076D01*
G37*
G36*
X119425168Y-35186322D02*
G01*
X119413542Y-35099811D01*
X119447341Y-35091070D01*
X119479310Y-35078120D01*
X119509678Y-35057811D01*
X119518347Y-35049204D01*
X119537829Y-35020088D01*
X119548320Y-34986597D01*
X119550318Y-34961838D01*
X119546177Y-34925454D01*
X119533755Y-34892809D01*
X119513052Y-34863904D01*
X119507918Y-34858572D01*
X119479447Y-34836393D01*
X119447036Y-34822428D01*
X119410685Y-34816678D01*
X119402942Y-34816514D01*
X119367703Y-34820320D01*
X119333684Y-34833301D01*
X119304634Y-34855495D01*
X119282538Y-34884779D01*
X119269614Y-34919034D01*
X119265824Y-34954486D01*
X119269564Y-34989936D01*
X119275398Y-35015694D01*
X119193846Y-35005948D01*
X119194700Y-34992100D01*
X119191347Y-34955350D01*
X119181286Y-34921266D01*
X119166319Y-34892595D01*
X119143171Y-34867384D01*
X119109624Y-34851817D01*
X119078783Y-34848314D01*
X119043373Y-34853647D01*
X119011172Y-34871318D01*
X119001162Y-34880627D01*
X118981237Y-34909847D01*
X118971470Y-34945274D01*
X118970388Y-34963719D01*
X118974812Y-34999190D01*
X118989589Y-35032299D01*
X119001846Y-35047836D01*
X119029864Y-35069707D01*
X119063319Y-35083799D01*
X119096222Y-35091091D01*
X119080834Y-35177602D01*
X119044851Y-35168782D01*
X119012599Y-35156083D01*
X118980307Y-35136823D01*
X118952887Y-35112497D01*
X118946794Y-35105624D01*
X118926000Y-35075779D01*
X118911147Y-35042493D01*
X118902235Y-35005767D01*
X118899311Y-34970809D01*
X118899264Y-34965600D01*
X118901669Y-34930474D01*
X118909867Y-34893880D01*
X118923884Y-34859427D01*
X118942952Y-34828752D01*
X118966302Y-34803492D01*
X118991246Y-34785226D01*
X119023920Y-34769494D01*
X119058085Y-34761023D01*
X119081689Y-34759410D01*
X119117314Y-34763445D01*
X119150286Y-34775550D01*
X119164610Y-34783858D01*
X119192382Y-34807645D01*
X119213559Y-34836564D01*
X119223936Y-34856521D01*
X119234586Y-34823540D01*
X119252224Y-34792098D01*
X119275972Y-34766132D01*
X119284289Y-34759410D01*
X119315180Y-34741107D01*
X119350580Y-34729583D01*
X119386294Y-34725008D01*
X119399010Y-34724703D01*
X119438351Y-34727926D01*
X119474992Y-34737596D01*
X119508933Y-34753713D01*
X119540175Y-34776277D01*
X119556815Y-34792065D01*
X119578778Y-34818570D01*
X119598658Y-34852638D01*
X119612353Y-34890092D01*
X119619170Y-34924892D01*
X119621442Y-34962180D01*
X119618832Y-35001291D01*
X119611002Y-35037391D01*
X119597953Y-35070480D01*
X119579685Y-35100559D01*
X119566902Y-35116395D01*
X119541420Y-35140662D01*
X119512846Y-35159905D01*
X119481179Y-35174125D01*
X119446419Y-35183322D01*
X119425168Y-35186322D01*
G37*
G36*
X119610500Y-34593227D02*
G01*
X119512021Y-34593227D01*
X119512021Y-34494577D01*
X119610500Y-34494577D01*
X119610500Y-34593227D01*
G37*
G36*
X119425168Y-34369085D02*
G01*
X119413542Y-34282574D01*
X119447341Y-34273834D01*
X119479310Y-34260884D01*
X119509678Y-34240575D01*
X119518347Y-34231967D01*
X119537829Y-34202852D01*
X119548320Y-34169360D01*
X119550318Y-34144602D01*
X119546177Y-34108217D01*
X119533755Y-34075572D01*
X119513052Y-34046668D01*
X119507918Y-34041336D01*
X119479447Y-34019156D01*
X119447036Y-34005192D01*
X119410685Y-33999441D01*
X119402942Y-33999277D01*
X119367703Y-34003084D01*
X119333684Y-34016065D01*
X119304634Y-34038258D01*
X119282538Y-34067543D01*
X119269614Y-34101797D01*
X119265824Y-34137250D01*
X119269564Y-34172699D01*
X119275398Y-34198457D01*
X119193846Y-34188712D01*
X119194700Y-34174863D01*
X119191347Y-34138113D01*
X119181286Y-34104030D01*
X119166319Y-34075359D01*
X119143171Y-34050148D01*
X119109624Y-34034580D01*
X119078783Y-34031078D01*
X119043373Y-34036410D01*
X119011172Y-34054082D01*
X119001162Y-34063391D01*
X118981237Y-34092610D01*
X118971470Y-34128038D01*
X118970388Y-34146482D01*
X118974812Y-34181953D01*
X118989589Y-34215062D01*
X119001846Y-34230600D01*
X119029864Y-34252470D01*
X119063319Y-34266562D01*
X119096222Y-34273855D01*
X119080834Y-34360366D01*
X119044851Y-34351545D01*
X119012599Y-34338847D01*
X118980307Y-34319586D01*
X118952887Y-34295260D01*
X118946794Y-34288387D01*
X118926000Y-34258542D01*
X118911147Y-34225257D01*
X118902235Y-34188530D01*
X118899311Y-34153572D01*
X118899264Y-34148363D01*
X118901669Y-34113237D01*
X118909867Y-34076643D01*
X118923884Y-34042191D01*
X118942952Y-34011516D01*
X118966302Y-33986255D01*
X118991246Y-33967990D01*
X119023920Y-33952258D01*
X119058085Y-33943787D01*
X119081689Y-33942173D01*
X119117314Y-33946208D01*
X119150286Y-33958313D01*
X119164610Y-33966622D01*
X119192382Y-33990409D01*
X119213559Y-34019328D01*
X119223936Y-34039284D01*
X119234586Y-34006304D01*
X119252224Y-33974861D01*
X119275972Y-33948895D01*
X119284289Y-33942173D01*
X119315180Y-33923871D01*
X119350580Y-33912347D01*
X119386294Y-33907771D01*
X119399010Y-33907466D01*
X119438351Y-33910690D01*
X119474992Y-33920360D01*
X119508933Y-33936477D01*
X119540175Y-33959040D01*
X119556815Y-33974828D01*
X119578778Y-34001333D01*
X119598658Y-34035401D01*
X119612353Y-34072856D01*
X119619170Y-34107655D01*
X119621442Y-34144944D01*
X119618832Y-34184054D01*
X119611002Y-34220154D01*
X119597953Y-34253244D01*
X119579685Y-34283322D01*
X119566902Y-34299158D01*
X119541420Y-34323425D01*
X119512846Y-34342668D01*
X119481179Y-34356888D01*
X119446419Y-34366085D01*
X119425168Y-34369085D01*
G37*
G36*
X119610500Y-33587923D02*
G01*
X118899264Y-33861133D01*
X118899264Y-33760090D01*
X119416449Y-33576810D01*
X119450833Y-33564972D01*
X119483972Y-33554270D01*
X119519335Y-33543712D01*
X119533050Y-33539881D01*
X119496612Y-33529122D01*
X119463818Y-33518582D01*
X119431024Y-33507231D01*
X119416449Y-33501925D01*
X118899264Y-33311465D01*
X118899264Y-33216235D01*
X119610500Y-33492180D01*
X119610500Y-33587923D01*
G37*
G36*
X87609500Y-60519508D02*
G01*
X88238669Y-60519508D01*
X88238669Y-60287330D01*
X88320735Y-60287330D01*
X88320735Y-60846060D01*
X88238669Y-60846060D01*
X88238669Y-60612857D01*
X87609500Y-60612857D01*
X87609500Y-60519508D01*
G37*
G36*
X87609500Y-60866919D02*
G01*
X87980162Y-61139616D01*
X88320735Y-60899232D01*
X88320735Y-61010192D01*
X88140019Y-61138248D01*
X88110421Y-61158830D01*
X88079793Y-61179027D01*
X88053338Y-61194839D01*
X88082670Y-61213761D01*
X88112963Y-61235135D01*
X88133693Y-61250746D01*
X88320735Y-61392480D01*
X88320735Y-61494037D01*
X87985463Y-61246301D01*
X87609500Y-61513185D01*
X87609500Y-61397781D01*
X87860996Y-61220485D01*
X87889607Y-61201411D01*
X87908184Y-61189710D01*
X87879106Y-61171651D01*
X87855183Y-61156029D01*
X87609500Y-60979075D01*
X87609500Y-60866919D01*
G37*
G36*
X87861167Y-58248786D02*
G01*
X87837573Y-58342136D01*
X87802488Y-58331802D01*
X87770107Y-58319181D01*
X87734821Y-58301017D01*
X87703429Y-58279559D01*
X87675932Y-58254807D01*
X87659765Y-58236476D01*
X87638964Y-58206749D01*
X87622467Y-58174630D01*
X87610273Y-58140119D01*
X87602383Y-58103216D01*
X87598797Y-58063920D01*
X87598557Y-58050290D01*
X87599697Y-58015693D01*
X87604073Y-57976920D01*
X87611730Y-57941140D01*
X87622670Y-57908354D01*
X87639580Y-57873887D01*
X87645232Y-57864787D01*
X87667649Y-57835224D01*
X87694058Y-57808917D01*
X87724459Y-57785866D01*
X87758852Y-57766071D01*
X87780299Y-57756221D01*
X87813966Y-57743555D01*
X87848548Y-57733509D01*
X87884043Y-57726084D01*
X87920451Y-57721279D01*
X87957773Y-57719095D01*
X87970417Y-57718950D01*
X88010965Y-57720429D01*
X88049517Y-57724864D01*
X88086074Y-57732257D01*
X88120636Y-57742608D01*
X88153201Y-57755915D01*
X88163613Y-57761009D01*
X88197769Y-57781111D01*
X88228128Y-57804617D01*
X88254691Y-57831526D01*
X88277458Y-57861838D01*
X88288763Y-57880688D01*
X88305484Y-57915458D01*
X88318099Y-57951700D01*
X88326606Y-57989415D01*
X88331006Y-58028603D01*
X88331677Y-58051657D01*
X88329759Y-58090160D01*
X88324007Y-58126294D01*
X88314420Y-58160060D01*
X88298389Y-58196460D01*
X88277137Y-58229637D01*
X88251149Y-58259108D01*
X88220907Y-58284390D01*
X88191599Y-58302727D01*
X88159165Y-58317986D01*
X88123606Y-58330168D01*
X88101893Y-58238186D01*
X88134255Y-58226426D01*
X88166232Y-58210381D01*
X88195820Y-58189011D01*
X88216443Y-58167062D01*
X88235377Y-58135553D01*
X88247298Y-58099369D01*
X88252031Y-58062806D01*
X88252347Y-58049777D01*
X88250465Y-58015515D01*
X88243706Y-57979465D01*
X88232032Y-57946726D01*
X88213024Y-57913856D01*
X88188781Y-57885733D01*
X88160292Y-57862723D01*
X88127556Y-57844825D01*
X88107535Y-57837090D01*
X88074185Y-57827441D01*
X88040301Y-57820549D01*
X88005883Y-57816413D01*
X87970930Y-57815035D01*
X87932316Y-57816287D01*
X87895911Y-57820042D01*
X87861715Y-57826301D01*
X87825338Y-57836519D01*
X87812441Y-57841193D01*
X87780801Y-57856164D01*
X87750289Y-57877323D01*
X87725160Y-57903053D01*
X87711398Y-57922746D01*
X87695199Y-57954622D01*
X87684302Y-57987932D01*
X87678706Y-58022675D01*
X87677887Y-58042596D01*
X87680773Y-58080252D01*
X87689428Y-58114916D01*
X87703854Y-58146589D01*
X87724049Y-58175269D01*
X87749930Y-58200252D01*
X87781410Y-58220832D01*
X87813548Y-58235229D01*
X87849973Y-58246255D01*
X87861167Y-58248786D01*
G37*
G36*
X87842361Y-58421295D02*
G01*
X87850225Y-58509173D01*
X87814603Y-58515462D01*
X87781087Y-58526746D01*
X87759611Y-58538238D01*
X87733085Y-58561000D01*
X87712557Y-58589375D01*
X87702336Y-58609191D01*
X87689974Y-58643731D01*
X87683189Y-58677551D01*
X87680644Y-58713676D01*
X87680623Y-58717415D01*
X87682502Y-58752613D01*
X87688837Y-58787647D01*
X87696523Y-58811619D01*
X87712844Y-58843465D01*
X87737025Y-58869923D01*
X87740463Y-58872484D01*
X87771653Y-58888093D01*
X87801499Y-58892488D01*
X87836355Y-58886375D01*
X87859800Y-58873168D01*
X87882881Y-58847737D01*
X87899710Y-58815175D01*
X87901858Y-58809738D01*
X87912919Y-58775336D01*
X87922957Y-58738229D01*
X87932111Y-58701851D01*
X87936394Y-58684246D01*
X87945146Y-58649873D01*
X87955113Y-58614938D01*
X87966183Y-58581823D01*
X87980846Y-58548154D01*
X88000795Y-58516510D01*
X88023734Y-58490926D01*
X88047183Y-58472928D01*
X88078150Y-58457821D01*
X88111809Y-58449686D01*
X88135745Y-58448137D01*
X88171922Y-58451713D01*
X88206402Y-58462440D01*
X88236275Y-58478399D01*
X88263350Y-58500124D01*
X88286017Y-58527259D01*
X88304276Y-58559803D01*
X88307399Y-58566961D01*
X88319135Y-58600700D01*
X88327030Y-58636522D01*
X88331084Y-58674427D01*
X88331677Y-58696385D01*
X88330085Y-58734383D01*
X88325308Y-58770073D01*
X88317347Y-58803455D01*
X88306202Y-58834529D01*
X88290062Y-58865998D01*
X88267656Y-58895824D01*
X88240541Y-58920241D01*
X88231488Y-58926511D01*
X88199338Y-58943785D01*
X88164650Y-58955215D01*
X88127424Y-58960802D01*
X88119674Y-58961218D01*
X88112835Y-58871801D01*
X88148295Y-58865030D01*
X88181541Y-58851098D01*
X88210629Y-58827983D01*
X88215075Y-58822903D01*
X88233288Y-58793064D01*
X88243911Y-58759584D01*
X88248768Y-58724557D01*
X88249611Y-58700147D01*
X88248114Y-58665314D01*
X88242736Y-58630874D01*
X88230515Y-58595878D01*
X88218324Y-58576706D01*
X88193159Y-58553161D01*
X88159181Y-58539426D01*
X88143097Y-58538067D01*
X88108219Y-58544949D01*
X88080180Y-58565593D01*
X88061523Y-58597939D01*
X88048871Y-58633073D01*
X88039270Y-58666548D01*
X88029573Y-58706131D01*
X88021660Y-58739920D01*
X88012571Y-58775872D01*
X88002531Y-58811480D01*
X87990511Y-58847235D01*
X87984266Y-58862226D01*
X87967002Y-58894292D01*
X87944996Y-58923924D01*
X87917357Y-58949231D01*
X87911945Y-58953011D01*
X87880279Y-58969754D01*
X87845461Y-58979546D01*
X87811073Y-58982418D01*
X87776338Y-58979263D01*
X87742872Y-58969796D01*
X87710675Y-58954018D01*
X87704388Y-58950105D01*
X87675249Y-58927261D01*
X87650452Y-58898907D01*
X87631846Y-58868678D01*
X87626426Y-58857610D01*
X87612954Y-58822472D01*
X87604681Y-58789239D01*
X87599891Y-58754126D01*
X87598557Y-58721860D01*
X87599561Y-58687044D01*
X87603270Y-58649176D01*
X87609711Y-58614269D01*
X87620418Y-58578002D01*
X87627109Y-58561319D01*
X87643170Y-58530747D01*
X87665504Y-58500518D01*
X87692355Y-58474698D01*
X87712765Y-58459934D01*
X87746173Y-58442016D01*
X87781960Y-58429616D01*
X87815769Y-58423226D01*
X87842361Y-58421295D01*
G37*
G36*
X87609500Y-24959508D02*
G01*
X88238669Y-24959508D01*
X88238669Y-24727330D01*
X88320735Y-24727330D01*
X88320735Y-25286060D01*
X88238669Y-25286060D01*
X88238669Y-25052857D01*
X87609500Y-25052857D01*
X87609500Y-24959508D01*
G37*
G36*
X87609500Y-25306919D02*
G01*
X87980162Y-25579616D01*
X88320735Y-25339232D01*
X88320735Y-25450192D01*
X88140019Y-25578248D01*
X88110421Y-25598830D01*
X88079793Y-25619027D01*
X88053338Y-25634839D01*
X88082670Y-25653761D01*
X88112963Y-25675135D01*
X88133693Y-25690746D01*
X88320735Y-25832480D01*
X88320735Y-25934037D01*
X87985463Y-25686301D01*
X87609500Y-25953185D01*
X87609500Y-25837781D01*
X87860996Y-25660485D01*
X87889607Y-25641411D01*
X87908184Y-25629710D01*
X87879106Y-25611651D01*
X87855183Y-25596029D01*
X87609500Y-25419075D01*
X87609500Y-25306919D01*
G37*
G36*
X87842361Y-62467610D02*
G01*
X87850225Y-62555488D01*
X87814603Y-62561777D01*
X87781087Y-62573061D01*
X87759611Y-62584553D01*
X87733085Y-62607315D01*
X87712557Y-62635690D01*
X87702336Y-62655506D01*
X87689974Y-62690047D01*
X87683189Y-62723867D01*
X87680644Y-62759991D01*
X87680623Y-62763730D01*
X87682502Y-62798928D01*
X87688837Y-62833962D01*
X87696523Y-62857934D01*
X87712844Y-62889780D01*
X87737025Y-62916238D01*
X87740463Y-62918800D01*
X87771653Y-62934408D01*
X87801499Y-62938803D01*
X87836355Y-62932690D01*
X87859800Y-62919483D01*
X87882881Y-62894052D01*
X87899710Y-62861491D01*
X87901858Y-62856054D01*
X87912919Y-62821651D01*
X87922957Y-62784544D01*
X87932111Y-62748166D01*
X87936394Y-62730562D01*
X87945146Y-62696189D01*
X87955113Y-62661253D01*
X87966183Y-62628138D01*
X87980846Y-62594469D01*
X88000795Y-62562825D01*
X88023734Y-62537241D01*
X88047183Y-62519243D01*
X88078150Y-62504136D01*
X88111809Y-62496001D01*
X88135745Y-62494452D01*
X88171922Y-62498028D01*
X88206402Y-62508755D01*
X88236275Y-62524714D01*
X88263350Y-62546439D01*
X88286017Y-62573574D01*
X88304276Y-62606118D01*
X88307399Y-62613276D01*
X88319135Y-62647016D01*
X88327030Y-62682838D01*
X88331084Y-62720742D01*
X88331677Y-62742700D01*
X88330085Y-62780699D01*
X88325308Y-62816389D01*
X88317347Y-62849770D01*
X88306202Y-62880844D01*
X88290062Y-62912313D01*
X88267656Y-62942139D01*
X88240541Y-62966556D01*
X88231488Y-62972826D01*
X88199338Y-62990100D01*
X88164650Y-63001530D01*
X88127424Y-63007117D01*
X88119674Y-63007533D01*
X88112835Y-62918116D01*
X88148295Y-62911345D01*
X88181541Y-62897413D01*
X88210629Y-62874298D01*
X88215075Y-62869218D01*
X88233288Y-62839379D01*
X88243911Y-62805899D01*
X88248768Y-62770872D01*
X88249611Y-62746462D01*
X88248114Y-62711629D01*
X88242736Y-62677189D01*
X88230515Y-62642193D01*
X88218324Y-62623021D01*
X88193159Y-62599476D01*
X88159181Y-62585741D01*
X88143097Y-62584382D01*
X88108219Y-62591264D01*
X88080180Y-62611908D01*
X88061523Y-62644254D01*
X88048871Y-62679388D01*
X88039270Y-62712864D01*
X88029573Y-62752446D01*
X88021660Y-62786235D01*
X88012571Y-62822187D01*
X88002531Y-62857795D01*
X87990511Y-62893551D01*
X87984266Y-62908541D01*
X87967002Y-62940607D01*
X87944996Y-62970239D01*
X87917357Y-62995546D01*
X87911945Y-62999326D01*
X87880279Y-63016069D01*
X87845461Y-63025861D01*
X87811073Y-63028733D01*
X87776338Y-63025578D01*
X87742872Y-63016111D01*
X87710675Y-63000333D01*
X87704388Y-62996420D01*
X87675249Y-62973576D01*
X87650452Y-62945222D01*
X87631846Y-62914993D01*
X87626426Y-62903925D01*
X87612954Y-62868787D01*
X87604681Y-62835555D01*
X87599891Y-62800442D01*
X87598557Y-62768175D01*
X87599561Y-62733359D01*
X87603270Y-62695491D01*
X87609711Y-62660584D01*
X87620418Y-62624317D01*
X87627109Y-62607634D01*
X87643170Y-62577063D01*
X87665504Y-62546833D01*
X87692355Y-62521013D01*
X87712765Y-62506249D01*
X87746173Y-62488331D01*
X87781960Y-62475931D01*
X87815769Y-62469541D01*
X87842361Y-62467610D01*
G37*
G36*
X87861167Y-63655338D02*
G01*
X87837573Y-63748688D01*
X87802488Y-63738355D01*
X87770107Y-63725734D01*
X87734821Y-63707570D01*
X87703429Y-63686112D01*
X87675932Y-63661360D01*
X87659765Y-63643028D01*
X87638964Y-63613302D01*
X87622467Y-63581183D01*
X87610273Y-63546671D01*
X87602383Y-63509768D01*
X87598797Y-63470472D01*
X87598557Y-63456842D01*
X87599697Y-63422245D01*
X87604073Y-63383472D01*
X87611730Y-63347693D01*
X87622670Y-63314906D01*
X87639580Y-63280439D01*
X87645232Y-63271340D01*
X87667649Y-63241776D01*
X87694058Y-63215469D01*
X87724459Y-63192418D01*
X87758852Y-63172623D01*
X87780299Y-63162774D01*
X87813966Y-63150107D01*
X87848548Y-63140061D01*
X87884043Y-63132636D01*
X87920451Y-63127832D01*
X87957773Y-63125648D01*
X87970417Y-63125502D01*
X88010965Y-63126981D01*
X88049517Y-63131417D01*
X88086074Y-63138810D01*
X88120636Y-63149160D01*
X88153201Y-63162468D01*
X88163613Y-63167561D01*
X88197769Y-63187663D01*
X88228128Y-63211169D01*
X88254691Y-63238078D01*
X88277458Y-63268390D01*
X88288763Y-63287240D01*
X88305484Y-63322010D01*
X88318099Y-63358253D01*
X88326606Y-63395968D01*
X88331006Y-63435156D01*
X88331677Y-63458210D01*
X88329759Y-63496712D01*
X88324007Y-63532846D01*
X88314420Y-63566612D01*
X88298389Y-63603013D01*
X88277137Y-63636190D01*
X88251149Y-63665661D01*
X88220907Y-63690943D01*
X88191599Y-63709279D01*
X88159165Y-63724538D01*
X88123606Y-63736720D01*
X88101893Y-63644738D01*
X88134255Y-63632978D01*
X88166232Y-63616934D01*
X88195820Y-63595563D01*
X88216443Y-63573615D01*
X88235377Y-63542105D01*
X88247298Y-63505921D01*
X88252031Y-63469358D01*
X88252347Y-63456329D01*
X88250465Y-63422068D01*
X88243706Y-63386017D01*
X88232032Y-63353279D01*
X88213024Y-63320408D01*
X88188781Y-63292286D01*
X88160292Y-63269275D01*
X88127556Y-63251377D01*
X88107535Y-63243643D01*
X88074185Y-63233993D01*
X88040301Y-63227101D01*
X88005883Y-63222966D01*
X87970930Y-63221587D01*
X87932316Y-63222839D01*
X87895911Y-63226594D01*
X87861715Y-63232853D01*
X87825338Y-63243071D01*
X87812441Y-63247746D01*
X87780801Y-63262716D01*
X87750289Y-63283875D01*
X87725160Y-63309606D01*
X87711398Y-63329298D01*
X87695199Y-63361175D01*
X87684302Y-63394484D01*
X87678706Y-63429227D01*
X87677887Y-63449148D01*
X87680773Y-63486805D01*
X87689428Y-63521469D01*
X87703854Y-63553141D01*
X87724049Y-63581821D01*
X87749930Y-63606804D01*
X87781410Y-63627385D01*
X87813548Y-63641781D01*
X87849973Y-63652807D01*
X87861167Y-63655338D01*
G37*
G36*
X87609500Y-63855715D02*
G01*
X88320735Y-63855715D01*
X88320735Y-63949065D01*
X87972127Y-63949065D01*
X88320735Y-64299040D01*
X88320735Y-64425558D01*
X88035728Y-64129780D01*
X87609500Y-64438552D01*
X87609500Y-64315453D01*
X87973153Y-64064469D01*
X87861167Y-63949065D01*
X87609500Y-63949065D01*
X87609500Y-63855715D01*
G37*
G36*
X119425168Y-32646322D02*
G01*
X119413542Y-32559811D01*
X119447341Y-32551070D01*
X119479310Y-32538120D01*
X119509678Y-32517811D01*
X119518347Y-32509204D01*
X119537829Y-32480088D01*
X119548320Y-32446597D01*
X119550318Y-32421838D01*
X119546177Y-32385454D01*
X119533755Y-32352809D01*
X119513052Y-32323904D01*
X119507918Y-32318572D01*
X119479447Y-32296393D01*
X119447036Y-32282428D01*
X119410685Y-32276678D01*
X119402942Y-32276514D01*
X119367703Y-32280320D01*
X119333684Y-32293301D01*
X119304634Y-32315495D01*
X119282538Y-32344779D01*
X119269614Y-32379034D01*
X119265824Y-32414486D01*
X119269564Y-32449936D01*
X119275398Y-32475694D01*
X119193846Y-32465948D01*
X119194700Y-32452100D01*
X119191347Y-32415350D01*
X119181286Y-32381266D01*
X119166319Y-32352595D01*
X119143171Y-32327384D01*
X119109624Y-32311817D01*
X119078783Y-32308314D01*
X119043373Y-32313647D01*
X119011172Y-32331318D01*
X119001162Y-32340627D01*
X118981237Y-32369847D01*
X118971470Y-32405274D01*
X118970388Y-32423719D01*
X118974812Y-32459190D01*
X118989589Y-32492299D01*
X119001846Y-32507836D01*
X119029864Y-32529707D01*
X119063319Y-32543799D01*
X119096222Y-32551091D01*
X119080834Y-32637602D01*
X119044851Y-32628782D01*
X119012599Y-32616083D01*
X118980307Y-32596823D01*
X118952887Y-32572497D01*
X118946794Y-32565624D01*
X118926000Y-32535779D01*
X118911147Y-32502493D01*
X118902235Y-32465767D01*
X118899311Y-32430809D01*
X118899264Y-32425600D01*
X118901669Y-32390474D01*
X118909867Y-32353880D01*
X118923884Y-32319427D01*
X118942952Y-32288752D01*
X118966302Y-32263492D01*
X118991246Y-32245226D01*
X119023920Y-32229494D01*
X119058085Y-32221023D01*
X119081689Y-32219410D01*
X119117314Y-32223445D01*
X119150286Y-32235550D01*
X119164610Y-32243858D01*
X119192382Y-32267645D01*
X119213559Y-32296564D01*
X119223936Y-32316521D01*
X119234586Y-32283540D01*
X119252224Y-32252098D01*
X119275972Y-32226132D01*
X119284289Y-32219410D01*
X119315180Y-32201107D01*
X119350580Y-32189583D01*
X119386294Y-32185008D01*
X119399010Y-32184703D01*
X119438351Y-32187926D01*
X119474992Y-32197596D01*
X119508933Y-32213713D01*
X119540175Y-32236277D01*
X119556815Y-32252065D01*
X119578778Y-32278570D01*
X119598658Y-32312638D01*
X119612353Y-32350092D01*
X119619170Y-32384892D01*
X119621442Y-32422180D01*
X119618832Y-32461291D01*
X119611002Y-32497391D01*
X119597953Y-32530480D01*
X119579685Y-32560559D01*
X119566902Y-32576395D01*
X119541420Y-32600662D01*
X119512846Y-32619905D01*
X119481179Y-32634125D01*
X119446419Y-32643322D01*
X119425168Y-32646322D01*
G37*
G36*
X119610500Y-32053227D02*
G01*
X119512021Y-32053227D01*
X119512021Y-31954577D01*
X119610500Y-31954577D01*
X119610500Y-32053227D01*
G37*
G36*
X119425168Y-31829085D02*
G01*
X119413542Y-31742574D01*
X119447341Y-31733834D01*
X119479310Y-31720884D01*
X119509678Y-31700575D01*
X119518347Y-31691967D01*
X119537829Y-31662852D01*
X119548320Y-31629360D01*
X119550318Y-31604602D01*
X119546177Y-31568217D01*
X119533755Y-31535572D01*
X119513052Y-31506668D01*
X119507918Y-31501336D01*
X119479447Y-31479156D01*
X119447036Y-31465192D01*
X119410685Y-31459441D01*
X119402942Y-31459277D01*
X119367703Y-31463084D01*
X119333684Y-31476065D01*
X119304634Y-31498258D01*
X119282538Y-31527543D01*
X119269614Y-31561797D01*
X119265824Y-31597250D01*
X119269564Y-31632699D01*
X119275398Y-31658457D01*
X119193846Y-31648712D01*
X119194700Y-31634863D01*
X119191347Y-31598113D01*
X119181286Y-31564030D01*
X119166319Y-31535359D01*
X119143171Y-31510148D01*
X119109624Y-31494580D01*
X119078783Y-31491078D01*
X119043373Y-31496410D01*
X119011172Y-31514082D01*
X119001162Y-31523391D01*
X118981237Y-31552610D01*
X118971470Y-31588038D01*
X118970388Y-31606482D01*
X118974812Y-31641953D01*
X118989589Y-31675062D01*
X119001846Y-31690600D01*
X119029864Y-31712470D01*
X119063319Y-31726562D01*
X119096222Y-31733855D01*
X119080834Y-31820366D01*
X119044851Y-31811545D01*
X119012599Y-31798847D01*
X118980307Y-31779586D01*
X118952887Y-31755260D01*
X118946794Y-31748387D01*
X118926000Y-31718542D01*
X118911147Y-31685257D01*
X118902235Y-31648530D01*
X118899311Y-31613572D01*
X118899264Y-31608363D01*
X118901669Y-31573237D01*
X118909867Y-31536643D01*
X118923884Y-31502191D01*
X118942952Y-31471516D01*
X118966302Y-31446255D01*
X118991246Y-31427990D01*
X119023920Y-31412258D01*
X119058085Y-31403787D01*
X119081689Y-31402173D01*
X119117314Y-31406208D01*
X119150286Y-31418313D01*
X119164610Y-31426622D01*
X119192382Y-31450409D01*
X119213559Y-31479328D01*
X119223936Y-31499284D01*
X119234586Y-31466304D01*
X119252224Y-31434861D01*
X119275972Y-31408895D01*
X119284289Y-31402173D01*
X119315180Y-31383871D01*
X119350580Y-31372347D01*
X119386294Y-31367771D01*
X119399010Y-31367466D01*
X119438351Y-31370690D01*
X119474992Y-31380360D01*
X119508933Y-31396477D01*
X119540175Y-31419040D01*
X119556815Y-31434828D01*
X119578778Y-31461333D01*
X119598658Y-31495401D01*
X119612353Y-31532856D01*
X119619170Y-31567655D01*
X119621442Y-31604944D01*
X119618832Y-31644054D01*
X119611002Y-31680154D01*
X119597953Y-31713244D01*
X119579685Y-31743322D01*
X119566902Y-31759158D01*
X119541420Y-31783425D01*
X119512846Y-31802668D01*
X119481179Y-31816888D01*
X119446419Y-31826085D01*
X119425168Y-31829085D01*
G37*
G36*
X119610500Y-31047923D02*
G01*
X118899264Y-31321133D01*
X118899264Y-31220090D01*
X119416449Y-31036810D01*
X119450833Y-31024972D01*
X119483972Y-31014270D01*
X119519335Y-31003712D01*
X119533050Y-30999881D01*
X119496612Y-30989122D01*
X119463818Y-30978582D01*
X119431024Y-30967231D01*
X119416449Y-30961925D01*
X118899264Y-30771465D01*
X118899264Y-30676235D01*
X119610500Y-30952180D01*
X119610500Y-31047923D01*
G37*
G36*
X119331476Y-27282170D02*
G01*
X119249411Y-27282170D01*
X119248898Y-26983656D01*
X119512021Y-26983656D01*
X119534589Y-27013938D01*
X119554572Y-27044646D01*
X119571970Y-27075779D01*
X119586783Y-27107337D01*
X119594086Y-27125561D01*
X119606054Y-27162309D01*
X119614603Y-27199548D01*
X119619732Y-27237279D01*
X119621442Y-27275502D01*
X119619873Y-27313758D01*
X119615166Y-27350691D01*
X119607323Y-27386302D01*
X119596341Y-27420591D01*
X119582222Y-27453558D01*
X119576818Y-27464253D01*
X119558620Y-27494593D01*
X119537621Y-27522011D01*
X119509582Y-27550308D01*
X119482514Y-27571397D01*
X119452645Y-27589565D01*
X119447394Y-27592309D01*
X119414961Y-27607009D01*
X119381133Y-27618668D01*
X119345910Y-27627285D01*
X119309293Y-27632861D01*
X119271282Y-27635396D01*
X119258301Y-27635565D01*
X119219993Y-27634056D01*
X119182647Y-27629530D01*
X119146263Y-27621987D01*
X119110840Y-27611426D01*
X119076379Y-27597848D01*
X119065105Y-27592651D01*
X119033074Y-27575172D01*
X119004301Y-27555049D01*
X118978786Y-27532280D01*
X118953136Y-27502374D01*
X118931920Y-27468869D01*
X118917103Y-27437684D01*
X118905352Y-27404779D01*
X118896667Y-27370156D01*
X118891047Y-27333813D01*
X118888493Y-27295752D01*
X118888322Y-27282683D01*
X118889850Y-27245390D01*
X118894434Y-27209935D01*
X118902075Y-27176318D01*
X118912771Y-27144539D01*
X118928052Y-27111848D01*
X118948615Y-27080506D01*
X118972951Y-27054406D01*
X118980988Y-27047599D01*
X119010931Y-27027256D01*
X119042305Y-27011803D01*
X119077872Y-26999054D01*
X119095025Y-26994256D01*
X119118106Y-27078374D01*
X119084258Y-27090214D01*
X119053507Y-27105205D01*
X119034673Y-27117868D01*
X119010367Y-27142257D01*
X118991959Y-27171878D01*
X118985946Y-27185059D01*
X118974798Y-27219231D01*
X118968796Y-27256097D01*
X118967652Y-27282170D01*
X118969221Y-27316772D01*
X118974644Y-27352014D01*
X118985083Y-27386886D01*
X118987485Y-27392787D01*
X119004114Y-27425269D01*
X119026091Y-27454760D01*
X119039631Y-27468185D01*
X119066819Y-27489267D01*
X119098496Y-27507238D01*
X119110412Y-27512466D01*
X119144371Y-27524285D01*
X119179741Y-27532726D01*
X119216521Y-27537791D01*
X119254711Y-27539480D01*
X119289521Y-27538338D01*
X119327367Y-27534118D01*
X119362235Y-27526790D01*
X119398438Y-27514609D01*
X119415081Y-27506995D01*
X119445236Y-27488915D01*
X119474204Y-27464181D01*
X119497925Y-27434795D01*
X119510824Y-27412620D01*
X119524512Y-27381108D01*
X119535237Y-27344507D01*
X119541012Y-27306690D01*
X119542112Y-27280802D01*
X119539807Y-27243169D01*
X119532895Y-27206136D01*
X119522734Y-27173321D01*
X119518518Y-27162491D01*
X119503471Y-27129112D01*
X119486225Y-27098720D01*
X119468252Y-27074954D01*
X119331476Y-27074954D01*
X119331476Y-27282170D01*
G37*
G36*
X119610500Y-26851154D02*
G01*
X118899264Y-26851154D01*
X118899264Y-26755582D01*
X119457652Y-26385261D01*
X118899264Y-26385261D01*
X118899264Y-26295844D01*
X119610500Y-26295844D01*
X119610500Y-26391416D01*
X119051599Y-26761737D01*
X119610500Y-26761737D01*
X119610500Y-26851154D01*
G37*
G36*
X119285521Y-25561231D02*
G01*
X119322867Y-25564463D01*
X119357905Y-25570047D01*
X119394564Y-25579138D01*
X119428059Y-25590472D01*
X119461278Y-25605065D01*
X119492959Y-25623546D01*
X119498172Y-25627180D01*
X119526494Y-25649901D01*
X119551642Y-25676305D01*
X119562799Y-25691294D01*
X119579968Y-25722031D01*
X119592510Y-25754661D01*
X119598361Y-25775582D01*
X119605272Y-25811172D01*
X119609065Y-25846541D01*
X119610452Y-25880829D01*
X119610500Y-25888764D01*
X119610500Y-26143168D01*
X118899264Y-26143168D01*
X118899264Y-25901758D01*
X118981330Y-25901758D01*
X118981330Y-26049818D01*
X119528434Y-26049818D01*
X119528434Y-25899364D01*
X119527393Y-25862507D01*
X119523793Y-25827138D01*
X119516079Y-25792452D01*
X119515269Y-25789944D01*
X119501688Y-25758313D01*
X119481119Y-25729697D01*
X119478169Y-25726685D01*
X119449638Y-25703876D01*
X119417740Y-25686601D01*
X119387555Y-25675052D01*
X119353623Y-25666043D01*
X119315877Y-25659983D01*
X119279124Y-25657071D01*
X119249582Y-25656416D01*
X119209234Y-25657696D01*
X119172565Y-25661537D01*
X119134434Y-25669254D01*
X119101309Y-25680457D01*
X119076902Y-25692833D01*
X119046105Y-25714465D01*
X119021610Y-25738586D01*
X119001785Y-25768305D01*
X118996033Y-25781053D01*
X118987073Y-25815578D01*
X118983067Y-25849929D01*
X118981459Y-25886549D01*
X118981330Y-25901758D01*
X118899264Y-25901758D01*
X118899264Y-25900219D01*
X118899905Y-25861537D01*
X118902159Y-25823844D01*
X118906567Y-25789196D01*
X118909523Y-25774727D01*
X118920522Y-25738637D01*
X118935996Y-25706019D01*
X118955945Y-25676874D01*
X118960472Y-25671461D01*
X118985893Y-25645282D01*
X119014626Y-25622649D01*
X119046673Y-25603565D01*
X119082031Y-25588028D01*
X119115359Y-25577236D01*
X119150716Y-25569094D01*
X119188101Y-25563604D01*
X119227516Y-25560764D01*
X119250950Y-25560331D01*
X119285521Y-25561231D01*
G37*
D10*
G36*
X103961637Y-89857638D02*
G01*
X104049515Y-89849774D01*
X104055804Y-89885396D01*
X104067088Y-89918912D01*
X104078580Y-89940388D01*
X104101342Y-89966914D01*
X104129717Y-89987442D01*
X104149533Y-89997663D01*
X104184074Y-90010025D01*
X104217894Y-90016810D01*
X104254018Y-90019355D01*
X104257757Y-90019376D01*
X104292955Y-90017497D01*
X104327989Y-90011162D01*
X104351961Y-90003476D01*
X104383807Y-89987155D01*
X104410265Y-89962974D01*
X104412827Y-89959536D01*
X104428435Y-89928346D01*
X104432830Y-89898500D01*
X104426717Y-89863644D01*
X104413510Y-89840199D01*
X104388079Y-89817118D01*
X104355518Y-89800289D01*
X104350081Y-89798141D01*
X104315678Y-89787080D01*
X104278571Y-89777042D01*
X104242193Y-89767888D01*
X104224589Y-89763605D01*
X104190216Y-89754853D01*
X104155280Y-89744886D01*
X104122165Y-89733816D01*
X104088496Y-89719153D01*
X104056852Y-89699204D01*
X104031268Y-89676265D01*
X104013270Y-89652816D01*
X103998163Y-89621849D01*
X103990028Y-89588190D01*
X103988479Y-89564254D01*
X103992055Y-89528077D01*
X104002782Y-89493597D01*
X104018741Y-89463724D01*
X104040466Y-89436649D01*
X104067601Y-89413982D01*
X104100145Y-89395723D01*
X104107303Y-89392600D01*
X104141043Y-89380864D01*
X104176865Y-89372969D01*
X104214769Y-89368915D01*
X104236727Y-89368322D01*
X104274726Y-89369914D01*
X104310416Y-89374691D01*
X104343797Y-89382652D01*
X104374871Y-89393797D01*
X104406340Y-89409937D01*
X104436166Y-89432343D01*
X104460583Y-89459458D01*
X104466853Y-89468511D01*
X104484127Y-89500661D01*
X104495557Y-89535349D01*
X104501144Y-89572575D01*
X104501560Y-89580325D01*
X104412143Y-89587164D01*
X104405372Y-89551704D01*
X104391440Y-89518458D01*
X104368325Y-89489370D01*
X104363245Y-89484924D01*
X104333406Y-89466711D01*
X104299926Y-89456088D01*
X104264899Y-89451231D01*
X104240489Y-89450388D01*
X104205656Y-89451885D01*
X104171216Y-89457263D01*
X104136220Y-89469484D01*
X104117048Y-89481675D01*
X104093503Y-89506840D01*
X104079768Y-89540818D01*
X104078409Y-89556902D01*
X104085291Y-89591780D01*
X104105935Y-89619819D01*
X104138281Y-89638476D01*
X104173415Y-89651128D01*
X104206891Y-89660729D01*
X104246473Y-89670426D01*
X104280262Y-89678339D01*
X104316214Y-89687428D01*
X104351822Y-89697468D01*
X104387578Y-89709488D01*
X104402568Y-89715733D01*
X104434634Y-89732997D01*
X104464266Y-89755003D01*
X104489573Y-89782642D01*
X104493353Y-89788054D01*
X104510096Y-89819720D01*
X104519888Y-89854538D01*
X104522760Y-89888926D01*
X104519605Y-89923661D01*
X104510138Y-89957127D01*
X104494360Y-89989324D01*
X104490447Y-89995611D01*
X104467603Y-90024750D01*
X104439249Y-90049547D01*
X104409020Y-90068153D01*
X104397952Y-90073573D01*
X104362814Y-90087045D01*
X104329582Y-90095318D01*
X104294469Y-90100108D01*
X104262202Y-90101442D01*
X104227386Y-90100438D01*
X104189518Y-90096729D01*
X104154611Y-90090288D01*
X104118344Y-90079581D01*
X104101661Y-90072890D01*
X104071090Y-90056829D01*
X104040860Y-90034495D01*
X104015040Y-90007644D01*
X104000276Y-89987234D01*
X103982358Y-89953826D01*
X103969958Y-89918039D01*
X103963568Y-89884230D01*
X103961637Y-89857638D01*
G37*
G36*
X105149365Y-89838832D02*
G01*
X105242715Y-89862426D01*
X105232382Y-89897511D01*
X105219761Y-89929892D01*
X105201597Y-89965178D01*
X105180139Y-89996570D01*
X105155387Y-90024067D01*
X105137055Y-90040234D01*
X105107329Y-90061035D01*
X105075210Y-90077532D01*
X105040698Y-90089726D01*
X105003795Y-90097616D01*
X104964499Y-90101202D01*
X104950869Y-90101442D01*
X104916272Y-90100302D01*
X104877499Y-90095926D01*
X104841720Y-90088269D01*
X104808933Y-90077329D01*
X104774466Y-90060419D01*
X104765367Y-90054767D01*
X104735803Y-90032350D01*
X104709496Y-90005941D01*
X104686445Y-89975540D01*
X104666650Y-89941147D01*
X104656801Y-89919700D01*
X104644134Y-89886033D01*
X104634088Y-89851451D01*
X104626663Y-89815956D01*
X104621859Y-89779548D01*
X104619675Y-89742226D01*
X104619529Y-89729582D01*
X104621008Y-89689034D01*
X104625444Y-89650482D01*
X104632837Y-89613925D01*
X104643187Y-89579363D01*
X104656495Y-89546798D01*
X104661588Y-89536386D01*
X104681690Y-89502230D01*
X104705196Y-89471871D01*
X104732105Y-89445308D01*
X104762417Y-89422541D01*
X104781267Y-89411236D01*
X104816037Y-89394515D01*
X104852280Y-89381900D01*
X104889995Y-89373393D01*
X104929183Y-89368993D01*
X104952237Y-89368322D01*
X104990739Y-89370240D01*
X105026873Y-89375992D01*
X105060639Y-89385579D01*
X105097040Y-89401610D01*
X105130217Y-89422862D01*
X105159688Y-89448850D01*
X105184970Y-89479092D01*
X105203306Y-89508400D01*
X105218565Y-89540834D01*
X105230747Y-89576393D01*
X105138765Y-89598106D01*
X105127005Y-89565744D01*
X105110961Y-89533767D01*
X105089590Y-89504179D01*
X105067642Y-89483556D01*
X105036132Y-89464622D01*
X104999948Y-89452701D01*
X104963385Y-89447968D01*
X104950356Y-89447652D01*
X104916095Y-89449534D01*
X104880044Y-89456293D01*
X104847306Y-89467967D01*
X104814435Y-89486975D01*
X104786313Y-89511218D01*
X104763302Y-89539707D01*
X104745404Y-89572443D01*
X104737670Y-89592464D01*
X104728020Y-89625814D01*
X104721128Y-89659698D01*
X104716993Y-89694116D01*
X104715614Y-89729069D01*
X104716866Y-89767683D01*
X104720621Y-89804088D01*
X104726880Y-89838284D01*
X104737098Y-89874661D01*
X104741773Y-89887558D01*
X104756743Y-89919198D01*
X104777902Y-89949710D01*
X104803633Y-89974839D01*
X104823325Y-89988601D01*
X104855202Y-90004800D01*
X104888511Y-90015697D01*
X104923254Y-90021293D01*
X104943175Y-90022112D01*
X104980832Y-90019226D01*
X105015496Y-90010571D01*
X105047168Y-89996145D01*
X105075848Y-89975950D01*
X105100831Y-89950069D01*
X105121412Y-89918589D01*
X105135808Y-89886451D01*
X105146834Y-89850026D01*
X105149365Y-89838832D01*
G37*
G36*
X105349742Y-90090500D02*
G01*
X105349742Y-89379264D01*
X105443092Y-89379264D01*
X105443092Y-90008434D01*
X105790161Y-90008434D01*
X105790161Y-90090500D01*
X105349742Y-90090500D01*
G37*
G36*
X99107829Y-89811476D02*
G01*
X99107829Y-89729411D01*
X99406343Y-89728898D01*
X99406343Y-89992021D01*
X99376061Y-90014589D01*
X99345353Y-90034572D01*
X99314220Y-90051970D01*
X99282662Y-90066783D01*
X99264438Y-90074086D01*
X99227690Y-90086054D01*
X99190451Y-90094603D01*
X99152720Y-90099732D01*
X99114497Y-90101442D01*
X99076241Y-90099873D01*
X99039308Y-90095166D01*
X99003697Y-90087323D01*
X98969408Y-90076341D01*
X98936441Y-90062222D01*
X98925746Y-90056818D01*
X98895406Y-90038620D01*
X98867988Y-90017621D01*
X98839691Y-89989582D01*
X98818602Y-89962514D01*
X98800434Y-89932645D01*
X98797690Y-89927394D01*
X98782990Y-89894961D01*
X98771331Y-89861133D01*
X98762714Y-89825910D01*
X98757138Y-89789293D01*
X98754603Y-89751282D01*
X98754434Y-89738301D01*
X98755943Y-89699993D01*
X98760469Y-89662647D01*
X98768012Y-89626263D01*
X98778573Y-89590840D01*
X98792151Y-89556379D01*
X98797348Y-89545105D01*
X98814827Y-89513074D01*
X98834950Y-89484301D01*
X98857719Y-89458786D01*
X98887625Y-89433136D01*
X98921130Y-89411920D01*
X98952315Y-89397103D01*
X98985220Y-89385352D01*
X99019843Y-89376667D01*
X99056186Y-89371047D01*
X99094247Y-89368493D01*
X99107316Y-89368322D01*
X99144609Y-89369850D01*
X99180064Y-89374434D01*
X99213681Y-89382075D01*
X99245460Y-89392771D01*
X99278151Y-89408052D01*
X99309493Y-89428615D01*
X99335593Y-89452951D01*
X99342400Y-89460988D01*
X99362743Y-89490931D01*
X99378196Y-89522305D01*
X99390945Y-89557872D01*
X99395743Y-89575025D01*
X99311625Y-89598106D01*
X99299785Y-89564258D01*
X99284794Y-89533507D01*
X99272131Y-89514673D01*
X99247742Y-89490367D01*
X99218121Y-89471959D01*
X99204940Y-89465946D01*
X99170768Y-89454798D01*
X99133902Y-89448796D01*
X99107829Y-89447652D01*
X99073227Y-89449221D01*
X99037985Y-89454644D01*
X99003113Y-89465083D01*
X98997212Y-89467485D01*
X98964730Y-89484114D01*
X98935239Y-89506091D01*
X98921814Y-89519631D01*
X98900732Y-89546819D01*
X98882761Y-89578496D01*
X98877533Y-89590412D01*
X98865714Y-89624371D01*
X98857273Y-89659741D01*
X98852208Y-89696521D01*
X98850519Y-89734711D01*
X98851661Y-89769521D01*
X98855881Y-89807367D01*
X98863209Y-89842235D01*
X98875390Y-89878438D01*
X98883004Y-89895081D01*
X98901084Y-89925236D01*
X98925818Y-89954204D01*
X98955204Y-89977925D01*
X98977379Y-89990824D01*
X99008891Y-90004512D01*
X99045492Y-90015237D01*
X99083309Y-90021012D01*
X99109197Y-90022112D01*
X99146830Y-90019807D01*
X99183863Y-90012895D01*
X99216678Y-90002734D01*
X99227508Y-89998518D01*
X99260887Y-89983471D01*
X99291279Y-89966225D01*
X99315045Y-89948252D01*
X99315045Y-89811476D01*
X99107829Y-89811476D01*
G37*
G36*
X99538845Y-90090500D02*
G01*
X99538845Y-89379264D01*
X99634417Y-89379264D01*
X100004738Y-89937652D01*
X100004738Y-89379264D01*
X100094155Y-89379264D01*
X100094155Y-90090500D01*
X99998583Y-90090500D01*
X99628262Y-89531599D01*
X99628262Y-90090500D01*
X99538845Y-90090500D01*
G37*
G36*
X100528462Y-89379905D02*
G01*
X100566155Y-89382159D01*
X100600803Y-89386567D01*
X100615272Y-89389523D01*
X100651362Y-89400522D01*
X100683980Y-89415996D01*
X100713125Y-89435945D01*
X100718538Y-89440472D01*
X100744717Y-89465893D01*
X100767350Y-89494626D01*
X100786434Y-89526673D01*
X100801971Y-89562031D01*
X100812763Y-89595359D01*
X100820905Y-89630716D01*
X100826395Y-89668101D01*
X100829235Y-89707516D01*
X100829668Y-89730950D01*
X100828768Y-89765521D01*
X100825536Y-89802867D01*
X100819952Y-89837905D01*
X100810861Y-89874564D01*
X100799527Y-89908059D01*
X100784934Y-89941278D01*
X100766453Y-89972959D01*
X100762819Y-89978172D01*
X100740098Y-90006494D01*
X100713694Y-90031642D01*
X100698705Y-90042799D01*
X100667968Y-90059968D01*
X100635338Y-90072510D01*
X100614417Y-90078361D01*
X100578827Y-90085272D01*
X100543458Y-90089065D01*
X100509170Y-90090452D01*
X100501235Y-90090500D01*
X100246831Y-90090500D01*
X100246831Y-90008434D01*
X100340181Y-90008434D01*
X100490635Y-90008434D01*
X100527492Y-90007393D01*
X100562861Y-90003793D01*
X100597547Y-89996079D01*
X100600055Y-89995269D01*
X100631686Y-89981688D01*
X100660302Y-89961119D01*
X100663314Y-89958169D01*
X100686123Y-89929638D01*
X100703398Y-89897740D01*
X100714947Y-89867555D01*
X100723956Y-89833623D01*
X100730016Y-89795877D01*
X100732928Y-89759124D01*
X100733583Y-89729582D01*
X100732303Y-89689234D01*
X100728462Y-89652565D01*
X100720745Y-89614434D01*
X100709542Y-89581309D01*
X100697166Y-89556902D01*
X100675534Y-89526105D01*
X100651413Y-89501610D01*
X100621694Y-89481785D01*
X100608946Y-89476033D01*
X100574421Y-89467073D01*
X100540070Y-89463067D01*
X100503450Y-89461459D01*
X100488241Y-89461330D01*
X100340181Y-89461330D01*
X100340181Y-90008434D01*
X100246831Y-90008434D01*
X100246831Y-89379264D01*
X100489780Y-89379264D01*
X100528462Y-89379905D01*
G37*
D12*
G36*
X104845000Y-61227256D02*
G01*
X104213387Y-61626594D01*
X104084748Y-61710308D01*
X103959187Y-61795290D01*
X103833273Y-61885934D01*
X103795000Y-61915289D01*
X103678146Y-62016450D01*
X103592034Y-62118254D01*
X103524989Y-62254404D01*
X103511434Y-62300704D01*
X103497695Y-62451554D01*
X103496779Y-62523453D01*
X103496779Y-62987270D01*
X104845000Y-62987270D01*
X104845000Y-63386607D01*
X101796849Y-63386607D01*
X101796849Y-62047180D01*
X101797231Y-62031060D01*
X102136835Y-62031060D01*
X102136835Y-62987270D01*
X103156793Y-62987270D01*
X103156793Y-62127780D01*
X103151140Y-61968168D01*
X103131864Y-61819538D01*
X103098907Y-61699134D01*
X103023803Y-61563029D01*
X102914260Y-61463928D01*
X102772593Y-61401038D01*
X102637288Y-61383328D01*
X102484446Y-61405275D01*
X102353448Y-61471118D01*
X102278251Y-61539399D01*
X102197738Y-61667580D01*
X102153545Y-61821224D01*
X102138078Y-61969590D01*
X102136835Y-62031060D01*
X101797231Y-62031060D01*
X101800811Y-61879803D01*
X101812697Y-61730939D01*
X101835984Y-61583477D01*
X101879647Y-61433153D01*
X101951046Y-61298620D01*
X102052402Y-61184174D01*
X102170540Y-61097564D01*
X102305279Y-61031103D01*
X102448462Y-60989257D01*
X102600088Y-60972026D01*
X102631427Y-60971534D01*
X102788047Y-60984540D01*
X102931845Y-61023558D01*
X103078291Y-61098545D01*
X103180973Y-61179629D01*
X103282227Y-61297827D01*
X103363239Y-61444327D01*
X103417521Y-61595731D01*
X103451713Y-61742752D01*
X103464539Y-61822232D01*
X103536023Y-61690437D01*
X103615481Y-61581164D01*
X103724489Y-61473573D01*
X103849095Y-61369703D01*
X103974579Y-61279402D01*
X104019214Y-61249971D01*
X104845000Y-60723872D01*
X104845000Y-61227256D01*
G37*
G36*
X104845000Y-58907438D02*
G01*
X104698940Y-58959344D01*
X104568028Y-58981443D01*
X104659540Y-59096101D01*
X104741915Y-59220780D01*
X104809056Y-59354620D01*
X104818621Y-59378582D01*
X104863272Y-59525380D01*
X104887315Y-59680009D01*
X104891894Y-59787445D01*
X104883374Y-59937206D01*
X104852771Y-60088869D01*
X104791739Y-60234638D01*
X104713841Y-60342120D01*
X104592898Y-60444130D01*
X104452635Y-60508358D01*
X104293052Y-60534805D01*
X104258817Y-60535561D01*
X104112597Y-60519461D01*
X103970470Y-60466796D01*
X103962062Y-60462288D01*
X103840795Y-60377841D01*
X103746639Y-60271046D01*
X103671390Y-60136446D01*
X103623541Y-60003600D01*
X103593020Y-59856167D01*
X103570518Y-59701006D01*
X103567121Y-59673872D01*
X103546066Y-59513756D01*
X103519680Y-59347987D01*
X103487119Y-59186272D01*
X103447423Y-59039704D01*
X103438161Y-59012218D01*
X103731252Y-59012218D01*
X103779724Y-59158292D01*
X103815101Y-59303486D01*
X103843576Y-59451193D01*
X103869738Y-59618185D01*
X103896150Y-59770890D01*
X103934893Y-59916153D01*
X103945209Y-59942051D01*
X104034170Y-60063802D01*
X104067575Y-60088596D01*
X104210643Y-60138084D01*
X104247093Y-60139887D01*
X104393200Y-60108248D01*
X104498419Y-60027780D01*
X104570472Y-59899291D01*
X104597234Y-59751209D01*
X104598803Y-59698785D01*
X104585511Y-59544568D01*
X104541111Y-59392849D01*
X104504281Y-59317766D01*
X104415398Y-59196660D01*
X104293983Y-59098967D01*
X104244162Y-59072302D01*
X104098597Y-59029175D01*
X103943659Y-59013685D01*
X103869005Y-59012218D01*
X103731252Y-59012218D01*
X103438161Y-59012218D01*
X103341441Y-59010753D01*
X103191380Y-59025487D01*
X103056258Y-59085347D01*
X103024169Y-59115533D01*
X102947816Y-59241619D01*
X102908784Y-59391414D01*
X102898872Y-59538317D01*
X102907459Y-59688426D01*
X102940432Y-59833232D01*
X102986800Y-59924465D01*
X103098856Y-60027076D01*
X103243896Y-60093084D01*
X103297477Y-60109113D01*
X103247651Y-60471813D01*
X103102799Y-60430112D01*
X102968281Y-60367636D01*
X102883485Y-60309148D01*
X102781012Y-60200302D01*
X102705312Y-60070420D01*
X102669528Y-59981618D01*
X102626560Y-59825967D01*
X102602975Y-59670491D01*
X102594352Y-59519183D01*
X102594057Y-59484095D01*
X102599332Y-59334938D01*
X102617564Y-59188650D01*
X102656633Y-59040118D01*
X102660736Y-59029071D01*
X102725030Y-58893651D01*
X102820825Y-58777103D01*
X102827065Y-58771883D01*
X102956921Y-58694500D01*
X103081322Y-58656112D01*
X103236938Y-58641300D01*
X103394520Y-58637865D01*
X103424972Y-58637794D01*
X103922494Y-58637794D01*
X104075730Y-58637221D01*
X104234961Y-58635023D01*
X104386741Y-58630375D01*
X104540070Y-58619842D01*
X104580484Y-58614346D01*
X104723745Y-58575627D01*
X104845000Y-58519824D01*
X104845000Y-58907438D01*
G37*
G36*
X104198733Y-58222337D02*
G01*
X104141580Y-57855240D01*
X104289030Y-57816703D01*
X104416908Y-57740071D01*
X104472041Y-57683781D01*
X104546524Y-57550378D01*
X104581574Y-57394393D01*
X104587079Y-57288841D01*
X104576847Y-57141894D01*
X104537554Y-56999562D01*
X104482299Y-56909287D01*
X104367627Y-56816414D01*
X104234637Y-56785456D01*
X104091297Y-56832790D01*
X104034602Y-56895365D01*
X103974011Y-57040232D01*
X103931220Y-57185146D01*
X103907840Y-57274186D01*
X103870076Y-57418425D01*
X103828492Y-57564434D01*
X103778942Y-57716920D01*
X103729054Y-57839852D01*
X103645742Y-57970799D01*
X103529192Y-58073564D01*
X103520959Y-58078722D01*
X103380642Y-58139722D01*
X103226402Y-58160055D01*
X103076694Y-58141236D01*
X102954560Y-58093376D01*
X102833633Y-58008676D01*
X102747198Y-57910927D01*
X102674612Y-57778235D01*
X102638754Y-57674988D01*
X102606672Y-57530185D01*
X102594232Y-57376044D01*
X102594057Y-57354786D01*
X102601213Y-57199811D01*
X102625613Y-57043719D01*
X102667330Y-56902693D01*
X102735450Y-56761141D01*
X102828015Y-56646297D01*
X102865900Y-56614730D01*
X103002041Y-56540370D01*
X103150244Y-56496761D01*
X103201489Y-56487236D01*
X103250582Y-56849936D01*
X103103121Y-56897747D01*
X102991929Y-56992818D01*
X102925136Y-57125514D01*
X102900327Y-57275159D01*
X102898872Y-57327675D01*
X102908916Y-57486168D01*
X102946683Y-57628827D01*
X102983869Y-57692574D01*
X103101564Y-57786398D01*
X103183171Y-57801751D01*
X103313597Y-57756321D01*
X103403036Y-57637551D01*
X103413248Y-57614172D01*
X103456726Y-57471840D01*
X103499372Y-57319778D01*
X103508503Y-57286642D01*
X103552841Y-57125892D01*
X103599049Y-56970084D01*
X103645340Y-56830381D01*
X103681427Y-56737829D01*
X103757987Y-56606324D01*
X103869110Y-56498704D01*
X103877065Y-56493097D01*
X104010963Y-56429459D01*
X104160629Y-56405216D01*
X104195802Y-56404437D01*
X104343986Y-56422335D01*
X104484915Y-56476027D01*
X104547512Y-56512881D01*
X104660203Y-56607266D01*
X104752080Y-56728853D01*
X104801769Y-56825023D01*
X104853080Y-56971473D01*
X104881245Y-57115729D01*
X104891806Y-57270575D01*
X104891894Y-57286642D01*
X104885763Y-57439425D01*
X104863113Y-57599634D01*
X104816791Y-57758945D01*
X104748670Y-57892886D01*
X104717505Y-57936573D01*
X104605668Y-58049530D01*
X104467169Y-58136985D01*
X104321677Y-58193314D01*
X104198733Y-58222337D01*
G37*
G36*
X103890804Y-54082649D02*
G01*
X104047058Y-54105318D01*
X104194886Y-54143100D01*
X104334288Y-54195993D01*
X104476051Y-54272282D01*
X104597993Y-54365958D01*
X104700112Y-54477022D01*
X104748279Y-54546238D01*
X104817702Y-54677156D01*
X104868192Y-54827108D01*
X104890632Y-54981782D01*
X104891894Y-55029106D01*
X104876888Y-55184161D01*
X104831868Y-55324911D01*
X104813492Y-55362497D01*
X104730974Y-55488979D01*
X104623080Y-55598338D01*
X104615655Y-55604298D01*
X105689103Y-55604298D01*
X105689103Y-55975058D01*
X102640952Y-55975058D01*
X102640952Y-55637270D01*
X102930380Y-55637270D01*
X102816280Y-55543367D01*
X102719184Y-55431870D01*
X102678321Y-55367626D01*
X102620719Y-55223491D01*
X102596115Y-55068051D01*
X102595165Y-55037898D01*
X102887149Y-55037898D01*
X102913470Y-55194203D01*
X102983079Y-55325178D01*
X103082925Y-55434001D01*
X103109898Y-55457019D01*
X103233867Y-55536841D01*
X103383023Y-55593856D01*
X103534196Y-55625037D01*
X103704653Y-55638756D01*
X103756898Y-55639469D01*
X103908212Y-55633467D01*
X104065080Y-55611292D01*
X104218426Y-55565943D01*
X104357878Y-55489417D01*
X104384113Y-55468743D01*
X104491146Y-55354569D01*
X104563096Y-55212779D01*
X104587079Y-55054018D01*
X104566543Y-54906628D01*
X104504933Y-54773120D01*
X104402251Y-54653494D01*
X104376786Y-54631234D01*
X104240239Y-54545872D01*
X104088209Y-54493448D01*
X103931516Y-54465683D01*
X103779627Y-54455336D01*
X103725390Y-54454647D01*
X103575364Y-54460700D01*
X103419087Y-54483065D01*
X103265214Y-54528803D01*
X103123637Y-54605986D01*
X103096709Y-54626838D01*
X102986199Y-54740654D01*
X102911911Y-54881224D01*
X102887149Y-55037898D01*
X102595165Y-55037898D01*
X102594057Y-55002727D01*
X102605533Y-54850145D01*
X102645204Y-54692980D01*
X102713210Y-54548839D01*
X102739138Y-54508136D01*
X102841405Y-54384259D01*
X102966856Y-54280990D01*
X103099584Y-54205668D01*
X103148000Y-54184270D01*
X103300377Y-54131494D01*
X103460752Y-54095990D01*
X103610023Y-54078931D01*
X103726123Y-54075093D01*
X103890804Y-54082649D01*
G37*
G36*
X103880284Y-51750349D02*
G01*
X104038042Y-51770742D01*
X104183278Y-51804731D01*
X104341033Y-51863464D01*
X104480755Y-51941774D01*
X104583415Y-52021988D01*
X104688250Y-52130068D01*
X104783143Y-52266124D01*
X104848514Y-52412910D01*
X104884363Y-52570424D01*
X104891894Y-52689503D01*
X104876432Y-52850805D01*
X104830044Y-52996188D01*
X104752732Y-53125652D01*
X104644495Y-53239199D01*
X104568761Y-53296935D01*
X104845000Y-53296935D01*
X104845000Y-53641318D01*
X101796849Y-53641318D01*
X101796849Y-53270557D01*
X102888614Y-53270557D01*
X102773841Y-53161449D01*
X102687257Y-53039928D01*
X102622823Y-52885849D01*
X102596646Y-52737731D01*
X102595326Y-52703425D01*
X102898872Y-52703425D01*
X102919624Y-52849027D01*
X102981877Y-52981748D01*
X103085632Y-53101589D01*
X103111364Y-53124012D01*
X103245902Y-53209728D01*
X103390696Y-53262370D01*
X103536850Y-53290249D01*
X103701167Y-53301159D01*
X103726123Y-53301332D01*
X103889032Y-53296213D01*
X104049454Y-53277826D01*
X104197084Y-53241156D01*
X104299117Y-53194353D01*
X104425100Y-53099053D01*
X104523806Y-52973338D01*
X104576955Y-52828032D01*
X104587079Y-52720278D01*
X104566328Y-52574677D01*
X104504075Y-52441956D01*
X104400319Y-52322115D01*
X104374588Y-52299692D01*
X104238543Y-52213976D01*
X104089879Y-52161334D01*
X103938385Y-52133454D01*
X103766906Y-52122545D01*
X103740778Y-52122372D01*
X103586896Y-52128348D01*
X103427488Y-52150427D01*
X103271841Y-52195581D01*
X103130566Y-52271780D01*
X103104036Y-52292365D01*
X102995845Y-52405551D01*
X102923116Y-52546090D01*
X102898872Y-52703425D01*
X102595326Y-52703425D01*
X102594057Y-52670453D01*
X102605598Y-52522315D01*
X102644146Y-52368578D01*
X102676123Y-52288701D01*
X102753210Y-52152768D01*
X102852307Y-52037876D01*
X102905467Y-51991946D01*
X103035884Y-51905631D01*
X103174301Y-51840767D01*
X103263039Y-51809497D01*
X103410071Y-51771951D01*
X103564030Y-51749991D01*
X103710003Y-51743551D01*
X103880284Y-51750349D01*
G37*
G36*
X103860212Y-49411276D02*
G01*
X103860212Y-51043795D01*
X104006517Y-51027035D01*
X104154402Y-50988819D01*
X104296140Y-50921521D01*
X104400233Y-50840097D01*
X104498765Y-50716349D01*
X104560804Y-50574998D01*
X104586349Y-50416044D01*
X104587079Y-50382141D01*
X104569544Y-50226431D01*
X104511441Y-50080653D01*
X104480833Y-50034095D01*
X104373588Y-49926729D01*
X104237455Y-49845224D01*
X104141580Y-49805484D01*
X104188475Y-49421534D01*
X104327501Y-49468683D01*
X104468872Y-49540685D01*
X104591558Y-49632013D01*
X104695560Y-49742666D01*
X104707247Y-49757857D01*
X104788030Y-49889061D01*
X104845732Y-50037209D01*
X104877288Y-50180739D01*
X104891173Y-50337242D01*
X104891894Y-50384340D01*
X104881461Y-50557335D01*
X104850163Y-50716369D01*
X104797999Y-50861440D01*
X104724969Y-50992550D01*
X104631074Y-51109698D01*
X104595139Y-51145644D01*
X104475183Y-51241266D01*
X104338432Y-51317103D01*
X104184886Y-51373157D01*
X104014543Y-51409427D01*
X103859762Y-51424539D01*
X103761294Y-51427012D01*
X103594022Y-51420071D01*
X103438879Y-51399249D01*
X103295865Y-51364544D01*
X103140257Y-51304575D01*
X103002115Y-51224616D01*
X102900338Y-51142714D01*
X102796250Y-51030151D01*
X102713698Y-50905687D01*
X102652681Y-50769323D01*
X102613200Y-50621057D01*
X102595254Y-50460890D01*
X102594057Y-50404856D01*
X102594354Y-50400460D01*
X102898872Y-50400460D01*
X102916332Y-50552343D01*
X102975869Y-50701068D01*
X103066659Y-50819592D01*
X103077658Y-50830571D01*
X103201134Y-50924008D01*
X103348081Y-50987249D01*
X103500400Y-51018348D01*
X103555397Y-51023279D01*
X103555397Y-49801088D01*
X103404482Y-49822230D01*
X103251200Y-49867434D01*
X103123087Y-49941039D01*
X103014702Y-50049070D01*
X102935877Y-50188546D01*
X102902376Y-50331572D01*
X102898872Y-50400460D01*
X102594354Y-50400460D01*
X102604799Y-50245934D01*
X102637025Y-50098346D01*
X102701775Y-49940486D01*
X102795767Y-49798054D01*
X102899605Y-49688247D01*
X103022918Y-49593622D01*
X103163697Y-49518575D01*
X103321940Y-49463105D01*
X103467151Y-49431835D01*
X103624491Y-49414161D01*
X103759096Y-49409811D01*
X103860212Y-49411276D01*
G37*
G36*
X104845000Y-48971639D02*
G01*
X102640952Y-48971639D01*
X102640952Y-48637515D01*
X102978740Y-48637515D01*
X102847407Y-48559762D01*
X102723529Y-48464461D01*
X102668796Y-48402309D01*
X102606392Y-48265782D01*
X102594057Y-48163439D01*
X102613890Y-48010064D01*
X102667402Y-47866770D01*
X102714225Y-47782420D01*
X103060806Y-47909915D01*
X103000905Y-48046203D01*
X102980938Y-48182490D01*
X103012810Y-48331404D01*
X103054944Y-48400843D01*
X103168860Y-48499991D01*
X103258642Y-48538596D01*
X103412824Y-48576549D01*
X103563391Y-48595952D01*
X103693150Y-48600878D01*
X104845000Y-48600878D01*
X104845000Y-48971639D01*
G37*
G36*
X104845000Y-47573593D02*
G01*
X102640952Y-47573593D01*
X102640952Y-47239469D01*
X102978740Y-47239469D01*
X102847407Y-47161716D01*
X102723529Y-47066415D01*
X102668796Y-47004263D01*
X102606392Y-46867736D01*
X102594057Y-46765393D01*
X102613890Y-46612018D01*
X102667402Y-46468724D01*
X102714225Y-46384374D01*
X103060806Y-46511869D01*
X103000905Y-46648157D01*
X102980938Y-46784444D01*
X103012810Y-46933358D01*
X103054944Y-47002797D01*
X103168860Y-47101945D01*
X103258642Y-47140550D01*
X103412824Y-47178503D01*
X103563391Y-47197906D01*
X103693150Y-47202832D01*
X104845000Y-47202832D01*
X104845000Y-47573593D01*
G37*
G36*
X105692034Y-46188003D02*
G01*
X105351315Y-46229036D01*
X105380392Y-46082646D01*
X105384288Y-46016545D01*
X105364201Y-45870488D01*
X105341789Y-45819441D01*
X105241612Y-45709405D01*
X105223087Y-45697075D01*
X105084957Y-45636854D01*
X104938056Y-45584235D01*
X104845000Y-45551262D01*
X102640952Y-46381443D01*
X102640952Y-45982106D01*
X103916632Y-45526349D01*
X104055028Y-45477927D01*
X104197365Y-45432403D01*
X104343643Y-45389776D01*
X104426612Y-45367347D01*
X104282929Y-45329519D01*
X104141217Y-45287749D01*
X104001475Y-45242038D01*
X103924692Y-45214940D01*
X102640952Y-44747459D01*
X102640952Y-44376698D01*
X104880170Y-45209078D01*
X105028018Y-45264867D01*
X105170453Y-45321585D01*
X105308699Y-45381920D01*
X105379159Y-45417173D01*
X105503734Y-45495483D01*
X105613909Y-45597264D01*
X105649535Y-45644319D01*
X105714382Y-45784270D01*
X105735913Y-45938100D01*
X105735997Y-45949134D01*
X105717064Y-46100272D01*
X105692034Y-46188003D01*
G37*
G36*
X102840757Y-40564334D02*
G01*
X102993297Y-40599571D01*
X103134478Y-40658300D01*
X103264298Y-40740521D01*
X103333381Y-40798052D01*
X103438161Y-40924341D01*
X103507490Y-41062672D01*
X103557911Y-41228773D01*
X103585485Y-41388402D01*
X103599928Y-41567316D01*
X103602292Y-41683921D01*
X103602292Y-42459148D01*
X104845000Y-42459148D01*
X104845000Y-42859217D01*
X101796849Y-42859217D01*
X101796849Y-41719092D01*
X101797333Y-41686119D01*
X102148558Y-41686119D01*
X102148558Y-42459148D01*
X103250582Y-42459148D01*
X103250582Y-41678059D01*
X103243535Y-41519242D01*
X103218221Y-41364098D01*
X103167738Y-41223172D01*
X103103304Y-41127780D01*
X102987937Y-41035168D01*
X102844344Y-40980999D01*
X102689312Y-40965114D01*
X102541332Y-40980956D01*
X102402526Y-41033449D01*
X102358119Y-41061102D01*
X102249422Y-41163927D01*
X102178554Y-41303420D01*
X102175669Y-41313160D01*
X102154515Y-41468780D01*
X102148982Y-41620826D01*
X102148558Y-41686119D01*
X101797333Y-41686119D01*
X101799167Y-41561293D01*
X101807181Y-41412199D01*
X101826158Y-41259671D01*
X101859815Y-41115102D01*
X101914701Y-40976943D01*
X101968307Y-40886712D01*
X102067348Y-40774341D01*
X102194202Y-40681319D01*
X102262131Y-40644912D01*
X102408723Y-40588652D01*
X102552512Y-40559891D01*
X102676856Y-40552588D01*
X102840757Y-40564334D01*
G37*
G36*
X102218900Y-40104891D02*
G01*
X101796849Y-40104891D01*
X101796849Y-39734130D01*
X102218900Y-39734130D01*
X102218900Y-40104891D01*
G37*
G36*
X104845000Y-40104891D02*
G01*
X102640952Y-40104891D01*
X102640952Y-39734130D01*
X104845000Y-39734130D01*
X104845000Y-40104891D01*
G37*
G36*
X102840757Y-35666776D02*
G01*
X102993297Y-35702014D01*
X103134478Y-35760743D01*
X103264298Y-35842964D01*
X103333381Y-35900494D01*
X103438161Y-36026783D01*
X103507490Y-36165115D01*
X103557911Y-36331215D01*
X103585485Y-36490845D01*
X103599928Y-36669758D01*
X103602292Y-36786363D01*
X103602292Y-37561590D01*
X104845000Y-37561590D01*
X104845000Y-37961660D01*
X101796849Y-37961660D01*
X101796849Y-36821534D01*
X101797333Y-36788561D01*
X102148558Y-36788561D01*
X102148558Y-37561590D01*
X103250582Y-37561590D01*
X103250582Y-36780501D01*
X103243535Y-36621685D01*
X103218221Y-36466541D01*
X103167738Y-36325614D01*
X103103304Y-36230222D01*
X102987937Y-36137611D01*
X102844344Y-36083442D01*
X102689312Y-36067557D01*
X102541332Y-36083398D01*
X102402526Y-36135891D01*
X102358119Y-36163544D01*
X102249422Y-36266369D01*
X102178554Y-36405862D01*
X102175669Y-36415603D01*
X102154515Y-36571222D01*
X102148982Y-36723268D01*
X102148558Y-36788561D01*
X101797333Y-36788561D01*
X101799167Y-36663735D01*
X101807181Y-36514642D01*
X101826158Y-36362113D01*
X101859815Y-36217545D01*
X101914701Y-36079385D01*
X101968307Y-35989155D01*
X102067348Y-35876784D01*
X102194202Y-35783762D01*
X102262131Y-35747354D01*
X102408723Y-35691094D01*
X102552512Y-35662333D01*
X102676856Y-35655030D01*
X102840757Y-35666776D01*
G37*
G36*
X102218900Y-35207333D02*
G01*
X101796849Y-35207333D01*
X101796849Y-34836573D01*
X102218900Y-34836573D01*
X102218900Y-35207333D01*
G37*
G36*
X104845000Y-35207333D02*
G01*
X102640952Y-35207333D01*
X102640952Y-34836573D01*
X104845000Y-34836573D01*
X104845000Y-35207333D01*
G37*
G36*
X104047791Y-32849413D02*
G01*
X104095418Y-32484514D01*
X104251160Y-32519706D01*
X104391403Y-32572710D01*
X104532705Y-32655097D01*
X104653766Y-32760747D01*
X104680868Y-32790794D01*
X104773192Y-32920945D01*
X104839138Y-33065201D01*
X104878705Y-33223562D01*
X104891688Y-33373699D01*
X104891894Y-33396028D01*
X104881539Y-33558282D01*
X104850472Y-33708171D01*
X104798694Y-33845695D01*
X104712111Y-33990512D01*
X104615459Y-34101245D01*
X104597337Y-34118499D01*
X104477613Y-34211132D01*
X104339909Y-34284599D01*
X104184224Y-34338901D01*
X104040752Y-34369513D01*
X103884793Y-34386815D01*
X103751036Y-34391074D01*
X103599517Y-34385464D01*
X103436828Y-34365314D01*
X103285314Y-34330509D01*
X103144973Y-34281050D01*
X103128217Y-34273837D01*
X102988385Y-34197858D01*
X102869767Y-34102636D01*
X102772362Y-33988172D01*
X102727414Y-33916266D01*
X102662950Y-33777773D01*
X102619583Y-33632674D01*
X102597313Y-33480967D01*
X102594057Y-33393830D01*
X102602718Y-33243954D01*
X102633824Y-33087952D01*
X102687554Y-32948252D01*
X102775041Y-32810578D01*
X102888843Y-32695734D01*
X103026639Y-32606739D01*
X103169269Y-32549335D01*
X103288684Y-32519685D01*
X103344371Y-32880187D01*
X103204809Y-32925305D01*
X103073582Y-33002736D01*
X103010980Y-33063370D01*
X102930512Y-33197719D01*
X102899858Y-33344900D01*
X102898872Y-33379176D01*
X102914869Y-33528686D01*
X102970168Y-33675232D01*
X103064964Y-33801170D01*
X103101106Y-33834933D01*
X103233467Y-33919586D01*
X103382360Y-33971576D01*
X103536758Y-33999110D01*
X103687016Y-34009371D01*
X103740778Y-34010055D01*
X103898764Y-34004104D01*
X104061527Y-33982120D01*
X104219121Y-33937160D01*
X104360176Y-33861291D01*
X104386311Y-33840794D01*
X104492185Y-33724989D01*
X104558846Y-33589148D01*
X104586295Y-33433271D01*
X104587079Y-33399692D01*
X104568532Y-33246128D01*
X104506579Y-33102790D01*
X104455188Y-33035526D01*
X104335730Y-32940660D01*
X104191107Y-32880132D01*
X104047791Y-32849413D01*
G37*
G36*
X103864932Y-30271001D02*
G01*
X104027035Y-30287465D01*
X104171817Y-30316061D01*
X104316073Y-30363597D01*
X104379717Y-30393307D01*
X104507976Y-30473768D01*
X104619079Y-30572545D01*
X104713025Y-30689637D01*
X104757805Y-30762602D01*
X104822623Y-30902150D01*
X104866229Y-31048770D01*
X104888620Y-31202460D01*
X104891894Y-31290899D01*
X104881487Y-31457000D01*
X104850266Y-31610735D01*
X104798231Y-31752106D01*
X104725382Y-31881112D01*
X104631718Y-31997753D01*
X104595872Y-32033886D01*
X104475693Y-32130254D01*
X104337173Y-32206684D01*
X104180312Y-32263176D01*
X104035583Y-32295021D01*
X103878118Y-32313021D01*
X103742976Y-32317452D01*
X103595320Y-32312162D01*
X103424627Y-32290674D01*
X103269356Y-32252657D01*
X103129504Y-32198110D01*
X102982036Y-32110835D01*
X102856774Y-31999758D01*
X102838056Y-31978931D01*
X102742982Y-31849587D01*
X102671260Y-31708391D01*
X102622889Y-31555345D01*
X102597870Y-31390447D01*
X102594057Y-31290899D01*
X102898872Y-31290899D01*
X102915449Y-31439985D01*
X102972751Y-31587962D01*
X103070982Y-31717334D01*
X103108433Y-31752518D01*
X103243293Y-31841068D01*
X103391682Y-31895450D01*
X103543536Y-31924251D01*
X103690050Y-31934985D01*
X103742243Y-31935700D01*
X103893592Y-31929260D01*
X104051281Y-31905468D01*
X104206597Y-31856810D01*
X104335351Y-31785255D01*
X104376786Y-31752518D01*
X104478441Y-31641943D01*
X104552372Y-31501408D01*
X104585231Y-31342269D01*
X104587079Y-31290899D01*
X104570329Y-31142876D01*
X104512426Y-30995672D01*
X104413164Y-30866643D01*
X104375321Y-30831478D01*
X104238644Y-30742928D01*
X104087668Y-30688546D01*
X103932798Y-30659745D01*
X103783141Y-30649012D01*
X103729787Y-30648296D01*
X103583195Y-30654788D01*
X103429883Y-30678770D01*
X103278025Y-30727817D01*
X103136963Y-30810584D01*
X103109898Y-30832944D01*
X103007889Y-30943525D01*
X102933700Y-31083116D01*
X102900727Y-31240309D01*
X102898872Y-31290899D01*
X102594057Y-31290899D01*
X102604516Y-31127435D01*
X102635892Y-30975563D01*
X102688184Y-30835282D01*
X102761394Y-30706594D01*
X102855521Y-30589498D01*
X102891545Y-30553042D01*
X103010814Y-30455677D01*
X103146054Y-30378458D01*
X103297265Y-30321382D01*
X103464447Y-30284451D01*
X103615966Y-30269063D01*
X103712201Y-30266545D01*
X103864932Y-30271001D01*
G37*
G36*
X100725750Y-79450481D02*
G01*
X100972924Y-79417264D01*
X100997898Y-79513831D01*
X101034898Y-79605172D01*
X101092923Y-79691938D01*
X101117516Y-79716706D01*
X101200703Y-79772370D01*
X101296393Y-79802343D01*
X101367132Y-79808053D01*
X101471088Y-79796222D01*
X101564358Y-79760730D01*
X101646942Y-79701578D01*
X101662177Y-79686908D01*
X101725547Y-79605564D01*
X101765446Y-79512961D01*
X101781875Y-79409101D01*
X101782345Y-79386978D01*
X101771468Y-79286294D01*
X101734379Y-79189097D01*
X101670970Y-79106099D01*
X101587300Y-79042967D01*
X101489431Y-79006041D01*
X101388137Y-78995212D01*
X101286852Y-79005898D01*
X101213259Y-79022568D01*
X101241102Y-78789560D01*
X101280670Y-78792002D01*
X101385670Y-78782421D01*
X101483052Y-78753675D01*
X101564968Y-78710914D01*
X101637000Y-78644775D01*
X101681479Y-78548925D01*
X101691486Y-78460809D01*
X101676249Y-78359638D01*
X101625760Y-78267635D01*
X101599162Y-78239036D01*
X101515678Y-78182107D01*
X101414458Y-78154200D01*
X101361758Y-78151109D01*
X101260413Y-78163749D01*
X101165816Y-78205968D01*
X101121423Y-78240990D01*
X101058935Y-78321041D01*
X101018672Y-78416628D01*
X100997837Y-78510635D01*
X100750663Y-78466671D01*
X100775864Y-78363862D01*
X100812145Y-78271712D01*
X100867176Y-78179449D01*
X100936679Y-78101108D01*
X100956315Y-78083698D01*
X101041587Y-78024286D01*
X101136689Y-77981849D01*
X101241621Y-77956386D01*
X101341502Y-77948032D01*
X101356385Y-77947899D01*
X101456744Y-77954768D01*
X101561299Y-77978193D01*
X101659735Y-78018241D01*
X101747377Y-78072720D01*
X101819550Y-78139435D01*
X101871737Y-78210704D01*
X101916686Y-78304059D01*
X101940889Y-78401672D01*
X101945499Y-78469113D01*
X101933970Y-78570898D01*
X101899385Y-78665105D01*
X101875645Y-78706029D01*
X101807683Y-78785377D01*
X101725057Y-78845884D01*
X101668039Y-78875533D01*
X101762269Y-78905960D01*
X101852105Y-78956354D01*
X101926293Y-79024208D01*
X101945499Y-79047969D01*
X101997792Y-79136230D01*
X102030717Y-79237371D01*
X102043790Y-79339411D01*
X102044661Y-79375743D01*
X102035452Y-79488145D01*
X102007823Y-79592835D01*
X101961774Y-79689810D01*
X101897307Y-79779072D01*
X101852198Y-79826615D01*
X101776469Y-79889366D01*
X101679133Y-79946167D01*
X101572120Y-79985297D01*
X101472692Y-80004771D01*
X101366155Y-80011263D01*
X101254410Y-80003806D01*
X101151267Y-79981436D01*
X101056726Y-79944154D01*
X100970787Y-79891958D01*
X100925541Y-79855436D01*
X100856208Y-79782630D01*
X100801227Y-79700988D01*
X100760598Y-79610511D01*
X100734321Y-79511198D01*
X100725750Y-79450481D01*
G37*
G36*
X102420307Y-79980000D02*
G01*
X102420307Y-79698632D01*
X102702163Y-79698632D01*
X102702163Y-79980000D01*
X102420307Y-79980000D01*
G37*
G36*
X103060712Y-79450481D02*
G01*
X103307885Y-79417264D01*
X103332859Y-79513831D01*
X103369859Y-79605172D01*
X103427885Y-79691938D01*
X103452477Y-79716706D01*
X103535665Y-79772370D01*
X103631355Y-79802343D01*
X103702093Y-79808053D01*
X103806049Y-79796222D01*
X103899319Y-79760730D01*
X103981904Y-79701578D01*
X103997139Y-79686908D01*
X104060508Y-79605564D01*
X104100408Y-79512961D01*
X104116837Y-79409101D01*
X104117306Y-79386978D01*
X104106430Y-79286294D01*
X104069341Y-79189097D01*
X104005931Y-79106099D01*
X103922262Y-79042967D01*
X103824392Y-79006041D01*
X103723098Y-78995212D01*
X103621814Y-79005898D01*
X103548220Y-79022568D01*
X103576064Y-78789560D01*
X103615631Y-78792002D01*
X103720632Y-78782421D01*
X103818013Y-78753675D01*
X103899930Y-78710914D01*
X103971961Y-78644775D01*
X104016440Y-78548925D01*
X104026448Y-78460809D01*
X104011211Y-78359638D01*
X103960721Y-78267635D01*
X103934124Y-78239036D01*
X103850640Y-78182107D01*
X103749419Y-78154200D01*
X103696720Y-78151109D01*
X103595375Y-78163749D01*
X103500777Y-78205968D01*
X103456385Y-78240990D01*
X103393897Y-78321041D01*
X103353634Y-78416628D01*
X103332798Y-78510635D01*
X103085624Y-78466671D01*
X103110826Y-78363862D01*
X103147107Y-78271712D01*
X103202138Y-78179449D01*
X103271640Y-78101108D01*
X103291277Y-78083698D01*
X103376548Y-78024286D01*
X103471650Y-77981849D01*
X103576583Y-77956386D01*
X103676464Y-77948032D01*
X103691347Y-77947899D01*
X103791706Y-77954768D01*
X103896260Y-77978193D01*
X103994696Y-78018241D01*
X104082338Y-78072720D01*
X104154511Y-78139435D01*
X104206699Y-78210704D01*
X104251647Y-78304059D01*
X104275850Y-78401672D01*
X104280460Y-78469113D01*
X104268932Y-78570898D01*
X104234346Y-78665105D01*
X104210607Y-78706029D01*
X104142645Y-78785377D01*
X104060018Y-78845884D01*
X104003001Y-78875533D01*
X104097231Y-78905960D01*
X104187066Y-78956354D01*
X104261255Y-79024208D01*
X104280460Y-79047969D01*
X104332753Y-79136230D01*
X104365678Y-79237371D01*
X104378751Y-79339411D01*
X104379623Y-79375743D01*
X104370413Y-79488145D01*
X104342784Y-79592835D01*
X104296736Y-79689810D01*
X104232268Y-79779072D01*
X104187160Y-79826615D01*
X104111431Y-79889366D01*
X104014095Y-79946167D01*
X103907082Y-79985297D01*
X103807654Y-80004771D01*
X103701116Y-80011263D01*
X103589371Y-80003806D01*
X103486228Y-79981436D01*
X103391687Y-79944154D01*
X103305748Y-79891958D01*
X103260502Y-79855436D01*
X103191169Y-79782630D01*
X103136188Y-79700988D01*
X103095560Y-79610511D01*
X103069283Y-79511198D01*
X103060712Y-79450481D01*
G37*
G36*
X104633147Y-79745526D02*
G01*
X105072784Y-79745526D01*
X104998145Y-79678037D01*
X104910046Y-79583816D01*
X104834998Y-79484757D01*
X104773002Y-79380858D01*
X104724058Y-79272120D01*
X104688166Y-79158544D01*
X104665326Y-79040128D01*
X104655537Y-78916873D01*
X104655129Y-78885303D01*
X104658993Y-78783648D01*
X104670585Y-78686047D01*
X104693876Y-78577300D01*
X104727686Y-78474071D01*
X104765038Y-78389979D01*
X104817448Y-78298439D01*
X104878506Y-78215736D01*
X104948213Y-78141868D01*
X105026569Y-78076836D01*
X105075227Y-78043642D01*
X105166943Y-77994154D01*
X105266419Y-77956822D01*
X105373656Y-77931644D01*
X105471750Y-77919737D01*
X105557851Y-77916636D01*
X105659185Y-77920740D01*
X105769160Y-77935904D01*
X105870252Y-77962241D01*
X105962463Y-77999751D01*
X106022889Y-78033384D01*
X106111824Y-78097864D01*
X106192516Y-78175045D01*
X106256359Y-78252996D01*
X106313891Y-78340672D01*
X106329169Y-78367508D01*
X106375993Y-78466751D01*
X106411315Y-78573848D01*
X106432438Y-78671896D01*
X106445112Y-78775714D01*
X106449337Y-78885303D01*
X106442811Y-79009768D01*
X106423233Y-79129393D01*
X106390604Y-79244180D01*
X106344923Y-79354127D01*
X106286190Y-79459236D01*
X106214406Y-79559505D01*
X106129570Y-79654935D01*
X106057377Y-79723332D01*
X106031682Y-79745526D01*
X106471319Y-79745526D01*
X106471319Y-79980000D01*
X105688276Y-79980000D01*
X105688276Y-79761158D01*
X105775661Y-79714547D01*
X105878804Y-79642167D01*
X105966667Y-79558094D01*
X106039249Y-79462328D01*
X106096551Y-79354869D01*
X106138572Y-79235716D01*
X106160060Y-79138678D01*
X106172953Y-79035063D01*
X106177250Y-78924870D01*
X106173041Y-78821406D01*
X106160411Y-78723809D01*
X106134142Y-78614438D01*
X106095748Y-78513516D01*
X106045229Y-78421043D01*
X106004815Y-78364089D01*
X105936511Y-78289053D01*
X105847620Y-78221132D01*
X105748818Y-78174343D01*
X105640105Y-78148684D01*
X105556385Y-78143293D01*
X105453774Y-78151090D01*
X105344177Y-78179894D01*
X105245472Y-78229923D01*
X105157659Y-78301176D01*
X105101605Y-78365066D01*
X105043668Y-78451837D01*
X104997718Y-78545821D01*
X104963755Y-78647017D01*
X104941778Y-78755427D01*
X104931789Y-78871049D01*
X104931123Y-78911193D01*
X104935400Y-79022917D01*
X104948228Y-79128012D01*
X104969609Y-79226478D01*
X105011420Y-79347454D01*
X105068436Y-79456646D01*
X105140655Y-79554053D01*
X105228079Y-79639676D01*
X105330707Y-79713513D01*
X105417655Y-79761158D01*
X105417655Y-79980000D01*
X104633147Y-79980000D01*
X104633147Y-79745526D01*
G37*
D13*
%TO.C,J4*%
X115690000Y-25330000D02*
X118350000Y-25330000D01*
X115690000Y-27870000D02*
X115690000Y-25330000D01*
X115690000Y-27870000D02*
X115690000Y-35550000D01*
X115690000Y-35550000D02*
X118350000Y-35550000D01*
X118350000Y-27870000D02*
X118350000Y-25330000D01*
X118350000Y-27870000D02*
X118350000Y-35550000D01*
%TO.C,J1*%
D12*
X98520000Y-88770000D02*
X108680000Y-88770000D01*
X108680000Y-86230000D01*
X98520000Y-86230000D01*
X98520000Y-88770000D01*
D13*
%TO.C,R2*%
X116754724Y-70527500D02*
X116245276Y-70527500D01*
X116754724Y-71572500D02*
X116245276Y-71572500D01*
%TO.C,U1*%
D12*
X93100000Y-21420000D02*
X114100000Y-21420000D01*
X114100000Y-72420000D01*
X93100000Y-72420000D01*
X93100000Y-21420000D01*
D13*
%TO.C,R1*%
X116754724Y-67987500D02*
X116245276Y-67987500D01*
X116754724Y-69032500D02*
X116245276Y-69032500D01*
%TO.C,U4*%
D12*
X92600000Y-74400000D02*
X114600000Y-74400000D01*
X114600000Y-83900000D01*
X92600000Y-83900000D01*
X92600000Y-74400000D01*
D13*
%TO.C,J3*%
X88870000Y-29140000D02*
X88870000Y-24000000D01*
X88870000Y-29140000D02*
X88870000Y-31680000D01*
X91530000Y-24000000D02*
X88870000Y-24000000D01*
X91530000Y-29140000D02*
X91530000Y-24000000D01*
X91530000Y-29140000D02*
X91530000Y-31680000D01*
X91530000Y-31680000D02*
X88870000Y-31680000D01*
%TO.C,J2*%
X88870000Y-54540000D02*
X91530000Y-54540000D01*
X88870000Y-57080000D02*
X88870000Y-54540000D01*
X88870000Y-57080000D02*
X88870000Y-69840000D01*
X88870000Y-69840000D02*
X91530000Y-69840000D01*
X91530000Y-57080000D02*
X91530000Y-54540000D01*
X91530000Y-57080000D02*
X91530000Y-69840000D01*
%TD*%
M02*
