%TF.GenerationSoftware,KiCad,Pcbnew,8.0.6*%
%TF.CreationDate,2025-01-19T15:27:20+01:00*%
%TF.ProjectId,obc_emulator_kicad,6f62635f-656d-4756-9c61-746f725f6b69,1*%
%TF.SameCoordinates,Original*%
%TF.FileFunction,Soldermask,Top*%
%TF.FilePolarity,Negative*%
%FSLAX46Y46*%
G04 Gerber Fmt 4.6, Leading zero omitted, Abs format (unit mm)*
G04 Created by KiCad (PCBNEW 8.0.6) date 2025-01-19 15:27:20*
%MOMM*%
%LPD*%
G01*
G04 APERTURE LIST*
G04 Aperture macros list*
%AMRoundRect*
0 Rectangle with rounded corners*
0 $1 Rounding radius*
0 $2 $3 $4 $5 $6 $7 $8 $9 X,Y pos of 4 corners*
0 Add a 4 corners polygon primitive as box body*
4,1,4,$2,$3,$4,$5,$6,$7,$8,$9,$2,$3,0*
0 Add four circle primitives for the rounded corners*
1,1,$1+$1,$2,$3*
1,1,$1+$1,$4,$5*
1,1,$1+$1,$6,$7*
1,1,$1+$1,$8,$9*
0 Add four rect primitives between the rounded corners*
20,1,$1+$1,$2,$3,$4,$5,0*
20,1,$1+$1,$4,$5,$6,$7,0*
20,1,$1+$1,$6,$7,$8,$9,0*
20,1,$1+$1,$8,$9,$2,$3,0*%
G04 Aperture macros list end*
%ADD10R,1.700000X1.700000*%
%ADD11O,1.700000X1.700000*%
%ADD12RoundRect,0.237500X0.250000X0.237500X-0.250000X0.237500X-0.250000X-0.237500X0.250000X-0.237500X0*%
%ADD13C,2.000000*%
%ADD14R,2.000000X2.000000*%
%ADD15C,1.700000*%
G04 APERTURE END LIST*
D10*
%TO.C,J4*%
X117020000Y-26600000D03*
X117020000Y-29140000D03*
D11*
X117020000Y-31680000D03*
X117020000Y-34220000D03*
%TD*%
D10*
%TO.C,J1*%
X99790000Y-87500000D03*
D11*
X102330000Y-87500000D03*
X104870000Y-87500000D03*
X107410000Y-87500000D03*
%TD*%
D12*
%TO.C,R2*%
X117412500Y-71050000D03*
X115587500Y-71050000D03*
%TD*%
D13*
%TO.C,U1*%
X94720000Y-22790000D03*
X94720000Y-25330000D03*
D14*
X94720000Y-27870000D03*
D13*
X94720000Y-30410000D03*
X94720000Y-32950000D03*
X94720000Y-35490000D03*
X94720000Y-38030000D03*
D14*
X94720000Y-40570000D03*
D13*
X94720000Y-43110000D03*
X94720000Y-45650000D03*
X94720000Y-48190000D03*
X94720000Y-50730000D03*
D14*
X94720000Y-53270000D03*
D13*
X94720000Y-55810000D03*
X94720000Y-58350000D03*
X94720000Y-60890000D03*
X94720000Y-63430000D03*
D14*
X94720000Y-65970000D03*
D13*
X94720000Y-68510000D03*
X94720000Y-71050000D03*
X112500000Y-71050000D03*
X112500000Y-68510000D03*
D14*
X112500000Y-65970000D03*
D13*
X112500000Y-63430000D03*
X112500000Y-60890000D03*
X112500000Y-58350000D03*
X112500000Y-55810000D03*
D14*
X112500000Y-53270000D03*
D13*
X112500000Y-50730000D03*
X112500000Y-48190000D03*
X112500000Y-45650000D03*
X112500000Y-43110000D03*
D14*
X112500000Y-40570000D03*
D13*
X112500000Y-38030000D03*
X112500000Y-35490000D03*
X112500000Y-32950000D03*
X112500000Y-30410000D03*
D14*
X112500000Y-27870000D03*
D13*
X112500000Y-25330000D03*
X112500000Y-22790000D03*
X101070000Y-70820000D03*
D14*
X103610000Y-70820000D03*
D13*
X106150000Y-70820000D03*
%TD*%
D12*
%TO.C,R1*%
X117412500Y-68510000D03*
X115587500Y-68510000D03*
%TD*%
D13*
%TO.C,U4*%
X117600000Y-79150000D03*
X89600000Y-79150000D03*
%TD*%
D10*
%TO.C,J3*%
X90200000Y-30410000D03*
D11*
X90200000Y-27870000D03*
X90200000Y-25330000D03*
%TD*%
D15*
%TO.C,J2*%
X90200000Y-55810000D03*
D11*
X90200000Y-58350000D03*
X90200000Y-60890000D03*
X90200000Y-63430000D03*
X90200000Y-65970000D03*
D10*
X90200000Y-68510000D03*
%TD*%
M02*
