M48
; DRILL file {KiCad 8.0.6} date 2025-01-19T15:27:26+0100
; FORMAT={-:-/ absolute / inch / decimal}
; #@! TF.CreationDate,2025-01-19T15:27:26+01:00
; #@! TF.GenerationSoftware,Kicad,Pcbnew,8.0.6
; #@! TF.FileFunction,Plated,1,2,PTH
FMAT,2
INCH
; #@! TA.AperFunction,Plated,PTH,ViaDrill
T1C0.0118
; #@! TA.AperFunction,Plated,PTH,ViaDrill
T2C0.0197
; #@! TA.AperFunction,Plated,PTH,ComponentDrill
T3C0.0394
%
G90
G05
T1
X3.65Y-2.2972
T2
X3.7894Y-2.962
X3.9252Y-2.962
X4.2126Y-2.962
X4.6224Y-2.962
T3
X3.5276Y-3.1161
X3.5512Y-0.9972
X3.5512Y-1.0972
X3.5512Y-1.1972
X3.5512Y-2.1972
X3.5512Y-2.2972
X3.5512Y-2.3972
X3.5512Y-2.4972
X3.5512Y-2.5972
X3.5512Y-2.6972
X3.7291Y-0.8972
X3.7291Y-0.9972
X3.7291Y-1.0972
X3.7291Y-1.1972
X3.7291Y-1.2972
X3.7291Y-1.3972
X3.7291Y-1.4972
X3.7291Y-1.5972
X3.7291Y-1.6972
X3.7291Y-1.7972
X3.7291Y-1.8972
X3.7291Y-1.9972
X3.7291Y-2.0972
X3.7291Y-2.1972
X3.7291Y-2.2972
X3.7291Y-2.3972
X3.7291Y-2.4972
X3.7291Y-2.5972
X3.7291Y-2.6972
X3.7291Y-2.7972
X3.9287Y-3.4449
X3.9791Y-2.7882
X4.0287Y-3.4449
X4.0791Y-2.7882
X4.1287Y-3.4449
X4.1791Y-2.7882
X4.2287Y-3.4449
X4.4291Y-0.8972
X4.4291Y-0.9972
X4.4291Y-1.0972
X4.4291Y-1.1972
X4.4291Y-1.2972
X4.4291Y-1.3972
X4.4291Y-1.4972
X4.4291Y-1.5972
X4.4291Y-1.6972
X4.4291Y-1.7972
X4.4291Y-1.8972
X4.4291Y-1.9972
X4.4291Y-2.0972
X4.4291Y-2.1972
X4.4291Y-2.2972
X4.4291Y-2.3972
X4.4291Y-2.4972
X4.4291Y-2.5972
X4.4291Y-2.6972
X4.4291Y-2.7972
X4.6071Y-1.0472
X4.6071Y-1.1472
X4.6071Y-1.2472
X4.6071Y-1.3472
X4.6299Y-3.1161
M30
