%TF.GenerationSoftware,KiCad,Pcbnew,8.0.6*%
%TF.CreationDate,2025-01-19T15:27:19+01:00*%
%TF.ProjectId,obc_emulator_kicad,6f62635f-656d-4756-9c61-746f725f6b69,1*%
%TF.SameCoordinates,Original*%
%TF.FileFunction,Legend,Bot*%
%TF.FilePolarity,Positive*%
%FSLAX46Y46*%
G04 Gerber Fmt 4.6, Leading zero omitted, Abs format (unit mm)*
G04 Created by KiCad (PCBNEW 8.0.6) date 2025-01-19 15:27:19*
%MOMM*%
%LPD*%
G01*
G04 APERTURE LIST*
%ADD10C,0.400000*%
G04 APERTURE END LIST*
D10*
X106228615Y-46702774D02*
X103857943Y-46702774D01*
X102799611Y-45968997D01*
X106228615Y-45968997D01*
X106228615Y-46702774D01*
G36*
X106228615Y-46702774D02*
G01*
X103857943Y-46702774D01*
X102799611Y-45968997D01*
X106228615Y-45968997D01*
X106228615Y-46702774D01*
G37*
X101811837Y-52939895D02*
X101821683Y-53041243D01*
X101838020Y-53141144D01*
X101860888Y-53238978D01*
X101890330Y-53334124D01*
X101926386Y-53425964D01*
X101969099Y-53513875D01*
X102018508Y-53597240D01*
X102045737Y-53637023D01*
X102074656Y-53675437D01*
X102105270Y-53712403D01*
X102137585Y-53747846D01*
X102171604Y-53781686D01*
X102207334Y-53813847D01*
X102244780Y-53844251D01*
X102283946Y-53872820D01*
X102324839Y-53899477D01*
X102367463Y-53924145D01*
X102411823Y-53946745D01*
X102457924Y-53967202D01*
X102505772Y-53985435D01*
X102555373Y-54001370D01*
X102606730Y-54014927D01*
X102659849Y-54026029D01*
X102714736Y-54034600D01*
X102771395Y-54040560D01*
X102771389Y-54809616D01*
X102673321Y-54802149D01*
X102578854Y-54790399D01*
X102487950Y-54774463D01*
X102400571Y-54754439D01*
X102316681Y-54730425D01*
X102236242Y-54702521D01*
X102159215Y-54670823D01*
X102085565Y-54635431D01*
X102015253Y-54596442D01*
X101948242Y-54553954D01*
X101884494Y-54508067D01*
X101823972Y-54458877D01*
X101766639Y-54406483D01*
X101712456Y-54350983D01*
X101661387Y-54292476D01*
X101613395Y-54231059D01*
X101568440Y-54166831D01*
X101526487Y-54099891D01*
X101487498Y-54030335D01*
X101451434Y-53958263D01*
X101418260Y-53883772D01*
X101387936Y-53806961D01*
X101360427Y-53727928D01*
X101335694Y-53646771D01*
X101313699Y-53563588D01*
X101294406Y-53478478D01*
X101263774Y-53302867D01*
X101243498Y-53120725D01*
X101233278Y-52932836D01*
X101811837Y-52939895D01*
G36*
X101811837Y-52939895D02*
G01*
X101821683Y-53041243D01*
X101838020Y-53141144D01*
X101860888Y-53238978D01*
X101890330Y-53334124D01*
X101926386Y-53425964D01*
X101969099Y-53513875D01*
X102018508Y-53597240D01*
X102045737Y-53637023D01*
X102074656Y-53675437D01*
X102105270Y-53712403D01*
X102137585Y-53747846D01*
X102171604Y-53781686D01*
X102207334Y-53813847D01*
X102244780Y-53844251D01*
X102283946Y-53872820D01*
X102324839Y-53899477D01*
X102367463Y-53924145D01*
X102411823Y-53946745D01*
X102457924Y-53967202D01*
X102505772Y-53985435D01*
X102555373Y-54001370D01*
X102606730Y-54014927D01*
X102659849Y-54026029D01*
X102714736Y-54034600D01*
X102771395Y-54040560D01*
X102771389Y-54809616D01*
X102673321Y-54802149D01*
X102578854Y-54790399D01*
X102487950Y-54774463D01*
X102400571Y-54754439D01*
X102316681Y-54730425D01*
X102236242Y-54702521D01*
X102159215Y-54670823D01*
X102085565Y-54635431D01*
X102015253Y-54596442D01*
X101948242Y-54553954D01*
X101884494Y-54508067D01*
X101823972Y-54458877D01*
X101766639Y-54406483D01*
X101712456Y-54350983D01*
X101661387Y-54292476D01*
X101613395Y-54231059D01*
X101568440Y-54166831D01*
X101526487Y-54099891D01*
X101487498Y-54030335D01*
X101451434Y-53958263D01*
X101418260Y-53883772D01*
X101387936Y-53806961D01*
X101360427Y-53727928D01*
X101335694Y-53646771D01*
X101313699Y-53563588D01*
X101294406Y-53478478D01*
X101263774Y-53302867D01*
X101243498Y-53120725D01*
X101233278Y-52932836D01*
X101811837Y-52939895D01*
G37*
X106228615Y-36521615D02*
X106228615Y-37304779D01*
X101303835Y-37304779D01*
X101303835Y-36592169D01*
X105078561Y-36570999D01*
X101303835Y-33960446D01*
X101303835Y-33219610D01*
X106228615Y-36521615D01*
G36*
X106228615Y-36521615D02*
G01*
X106228615Y-37304779D01*
X101303835Y-37304779D01*
X101303835Y-36592169D01*
X105078561Y-36570999D01*
X101303835Y-33960446D01*
X101303835Y-33219610D01*
X106228615Y-36521615D01*
G37*
X102044668Y-63981845D02*
X101303835Y-63981845D01*
X101303835Y-60193008D01*
X102044668Y-60193008D01*
X102044668Y-63981845D01*
G36*
X102044668Y-63981845D02*
G01*
X101303835Y-63981845D01*
X101303835Y-60193008D01*
X102044668Y-60193008D01*
X102044668Y-63981845D01*
G37*
X106228615Y-56058450D02*
X101917666Y-57490728D01*
X101917666Y-57533062D01*
X106228615Y-59064117D01*
X106228615Y-59946063D01*
X101303835Y-58055172D01*
X101303835Y-56968615D01*
X106228615Y-55232946D01*
X106228615Y-56058450D01*
G36*
X106228615Y-56058450D02*
G01*
X101917666Y-57490728D01*
X101917666Y-57533062D01*
X106228615Y-59064117D01*
X106228615Y-59946063D01*
X101303835Y-58055172D01*
X101303835Y-56968615D01*
X106228615Y-55232946D01*
X106228615Y-56058450D01*
G37*
X104015177Y-27279163D02*
X104148140Y-27292001D01*
X104277924Y-27310207D01*
X104404451Y-27333692D01*
X104527639Y-27362371D01*
X104647409Y-27396157D01*
X104763681Y-27434964D01*
X104876374Y-27478704D01*
X104985408Y-27527291D01*
X105090704Y-27580639D01*
X105192180Y-27638661D01*
X105289758Y-27701271D01*
X105383356Y-27768382D01*
X105472896Y-27839907D01*
X105558296Y-27915760D01*
X105639477Y-27995855D01*
X105716358Y-28080104D01*
X105788860Y-28168421D01*
X105856902Y-28260721D01*
X105920404Y-28356915D01*
X105979286Y-28456918D01*
X106033469Y-28560643D01*
X106082871Y-28668003D01*
X106127413Y-28778912D01*
X106167015Y-28893284D01*
X106201596Y-29011031D01*
X106231077Y-29132068D01*
X106255378Y-29256307D01*
X106274418Y-29383663D01*
X106288117Y-29514047D01*
X106296395Y-29647375D01*
X106299172Y-29783560D01*
X106296432Y-29926773D01*
X106288244Y-30066641D01*
X106274662Y-30203086D01*
X106255736Y-30336029D01*
X106231519Y-30465390D01*
X106202062Y-30591092D01*
X106167417Y-30713054D01*
X106127634Y-30831199D01*
X106082767Y-30945448D01*
X106032867Y-31055721D01*
X105977985Y-31161940D01*
X105918173Y-31264027D01*
X105853483Y-31361902D01*
X105783966Y-31455486D01*
X105709674Y-31544702D01*
X105630659Y-31629469D01*
X105546973Y-31709709D01*
X105458666Y-31785344D01*
X105365792Y-31856294D01*
X105268401Y-31922481D01*
X105166545Y-31983826D01*
X105060275Y-32040250D01*
X104949645Y-32091674D01*
X104834704Y-32138020D01*
X104715505Y-32179208D01*
X104592100Y-32215161D01*
X104464540Y-32245798D01*
X104332876Y-32271042D01*
X104197162Y-32290813D01*
X104057447Y-32305033D01*
X103913784Y-32313623D01*
X103766225Y-32316503D01*
X103625615Y-32313646D01*
X103488259Y-32305136D01*
X103354229Y-32291069D01*
X103223595Y-32271538D01*
X103096429Y-32246638D01*
X102972801Y-32216463D01*
X102852783Y-32181108D01*
X102736445Y-32140666D01*
X102623859Y-32095232D01*
X102515096Y-32044901D01*
X102410226Y-31989766D01*
X102309322Y-31929922D01*
X102212453Y-31865464D01*
X102119691Y-31796485D01*
X102031108Y-31723080D01*
X101946773Y-31645343D01*
X101866759Y-31563369D01*
X101791136Y-31477252D01*
X101719975Y-31387086D01*
X101653347Y-31292965D01*
X101591324Y-31194984D01*
X101533976Y-31093237D01*
X101481375Y-30987818D01*
X101433591Y-30878822D01*
X101390696Y-30766343D01*
X101352760Y-30650476D01*
X101319855Y-30531314D01*
X101292052Y-30408952D01*
X101269422Y-30283484D01*
X101252035Y-30155004D01*
X101239964Y-30023608D01*
X101233278Y-29889389D01*
X101952944Y-29889389D01*
X101958806Y-29984817D01*
X101968425Y-30077926D01*
X101981750Y-30168667D01*
X101998736Y-30256995D01*
X102019334Y-30342864D01*
X102043497Y-30426226D01*
X102071176Y-30507035D01*
X102102323Y-30585245D01*
X102136892Y-30660808D01*
X102174834Y-30733680D01*
X102216101Y-30803813D01*
X102260646Y-30871160D01*
X102308421Y-30935676D01*
X102359377Y-30997313D01*
X102413468Y-31056025D01*
X102470645Y-31111766D01*
X102530860Y-31164488D01*
X102594067Y-31214147D01*
X102660216Y-31260694D01*
X102729261Y-31304084D01*
X102801153Y-31344271D01*
X102875844Y-31381206D01*
X102953287Y-31414845D01*
X103033435Y-31445140D01*
X103116238Y-31472046D01*
X103201650Y-31495514D01*
X103289622Y-31515500D01*
X103380107Y-31531956D01*
X103473057Y-31544837D01*
X103568424Y-31554095D01*
X103666161Y-31559683D01*
X103766219Y-31561557D01*
X103869522Y-31559560D01*
X103970373Y-31553604D01*
X104068717Y-31543738D01*
X104164501Y-31530013D01*
X104257670Y-31512480D01*
X104348170Y-31491189D01*
X104435947Y-31466190D01*
X104520946Y-31437533D01*
X104603113Y-31405270D01*
X104682394Y-31369450D01*
X104758734Y-31330124D01*
X104832080Y-31287341D01*
X104902377Y-31241154D01*
X104969570Y-31191611D01*
X105033607Y-31138764D01*
X105094431Y-31082662D01*
X105151990Y-31023356D01*
X105206228Y-30960897D01*
X105257092Y-30895334D01*
X105304527Y-30826719D01*
X105348479Y-30755102D01*
X105388894Y-30680532D01*
X105425717Y-30603061D01*
X105458895Y-30522738D01*
X105488372Y-30439615D01*
X105514096Y-30353741D01*
X105536010Y-30265167D01*
X105554062Y-30173944D01*
X105568197Y-30080121D01*
X105578360Y-29983749D01*
X105584498Y-29884878D01*
X105586556Y-29783560D01*
X105584602Y-29686187D01*
X105578775Y-29591207D01*
X105569133Y-29498660D01*
X105555729Y-29408581D01*
X105538621Y-29321008D01*
X105517862Y-29235979D01*
X105493510Y-29153532D01*
X105465619Y-29073703D01*
X105434245Y-28996530D01*
X105399444Y-28922051D01*
X105361270Y-28850303D01*
X105319781Y-28781324D01*
X105275030Y-28715151D01*
X105227074Y-28651821D01*
X105175969Y-28591372D01*
X105121770Y-28533842D01*
X105064532Y-28479268D01*
X105004311Y-28427687D01*
X104941162Y-28379136D01*
X104875142Y-28333654D01*
X104806305Y-28291278D01*
X104734707Y-28252045D01*
X104660404Y-28215993D01*
X104583452Y-28183159D01*
X104503905Y-28153581D01*
X104421820Y-28127295D01*
X104337252Y-28104340D01*
X104250256Y-28084753D01*
X104160889Y-28068572D01*
X104069205Y-28055833D01*
X103975260Y-28046575D01*
X103879110Y-28040835D01*
X103879116Y-27271777D01*
X104015177Y-27279163D01*
G36*
X104015177Y-27279163D02*
G01*
X104148140Y-27292001D01*
X104277924Y-27310207D01*
X104404451Y-27333692D01*
X104527639Y-27362371D01*
X104647409Y-27396157D01*
X104763681Y-27434964D01*
X104876374Y-27478704D01*
X104985408Y-27527291D01*
X105090704Y-27580639D01*
X105192180Y-27638661D01*
X105289758Y-27701271D01*
X105383356Y-27768382D01*
X105472896Y-27839907D01*
X105558296Y-27915760D01*
X105639477Y-27995855D01*
X105716358Y-28080104D01*
X105788860Y-28168421D01*
X105856902Y-28260721D01*
X105920404Y-28356915D01*
X105979286Y-28456918D01*
X106033469Y-28560643D01*
X106082871Y-28668003D01*
X106127413Y-28778912D01*
X106167015Y-28893284D01*
X106201596Y-29011031D01*
X106231077Y-29132068D01*
X106255378Y-29256307D01*
X106274418Y-29383663D01*
X106288117Y-29514047D01*
X106296395Y-29647375D01*
X106299172Y-29783560D01*
X106296432Y-29926773D01*
X106288244Y-30066641D01*
X106274662Y-30203086D01*
X106255736Y-30336029D01*
X106231519Y-30465390D01*
X106202062Y-30591092D01*
X106167417Y-30713054D01*
X106127634Y-30831199D01*
X106082767Y-30945448D01*
X106032867Y-31055721D01*
X105977985Y-31161940D01*
X105918173Y-31264027D01*
X105853483Y-31361902D01*
X105783966Y-31455486D01*
X105709674Y-31544702D01*
X105630659Y-31629469D01*
X105546973Y-31709709D01*
X105458666Y-31785344D01*
X105365792Y-31856294D01*
X105268401Y-31922481D01*
X105166545Y-31983826D01*
X105060275Y-32040250D01*
X104949645Y-32091674D01*
X104834704Y-32138020D01*
X104715505Y-32179208D01*
X104592100Y-32215161D01*
X104464540Y-32245798D01*
X104332876Y-32271042D01*
X104197162Y-32290813D01*
X104057447Y-32305033D01*
X103913784Y-32313623D01*
X103766225Y-32316503D01*
X103625615Y-32313646D01*
X103488259Y-32305136D01*
X103354229Y-32291069D01*
X103223595Y-32271538D01*
X103096429Y-32246638D01*
X102972801Y-32216463D01*
X102852783Y-32181108D01*
X102736445Y-32140666D01*
X102623859Y-32095232D01*
X102515096Y-32044901D01*
X102410226Y-31989766D01*
X102309322Y-31929922D01*
X102212453Y-31865464D01*
X102119691Y-31796485D01*
X102031108Y-31723080D01*
X101946773Y-31645343D01*
X101866759Y-31563369D01*
X101791136Y-31477252D01*
X101719975Y-31387086D01*
X101653347Y-31292965D01*
X101591324Y-31194984D01*
X101533976Y-31093237D01*
X101481375Y-30987818D01*
X101433591Y-30878822D01*
X101390696Y-30766343D01*
X101352760Y-30650476D01*
X101319855Y-30531314D01*
X101292052Y-30408952D01*
X101269422Y-30283484D01*
X101252035Y-30155004D01*
X101239964Y-30023608D01*
X101233278Y-29889389D01*
X101952944Y-29889389D01*
X101958806Y-29984817D01*
X101968425Y-30077926D01*
X101981750Y-30168667D01*
X101998736Y-30256995D01*
X102019334Y-30342864D01*
X102043497Y-30426226D01*
X102071176Y-30507035D01*
X102102323Y-30585245D01*
X102136892Y-30660808D01*
X102174834Y-30733680D01*
X102216101Y-30803813D01*
X102260646Y-30871160D01*
X102308421Y-30935676D01*
X102359377Y-30997313D01*
X102413468Y-31056025D01*
X102470645Y-31111766D01*
X102530860Y-31164488D01*
X102594067Y-31214147D01*
X102660216Y-31260694D01*
X102729261Y-31304084D01*
X102801153Y-31344271D01*
X102875844Y-31381206D01*
X102953287Y-31414845D01*
X103033435Y-31445140D01*
X103116238Y-31472046D01*
X103201650Y-31495514D01*
X103289622Y-31515500D01*
X103380107Y-31531956D01*
X103473057Y-31544837D01*
X103568424Y-31554095D01*
X103666161Y-31559683D01*
X103766219Y-31561557D01*
X103869522Y-31559560D01*
X103970373Y-31553604D01*
X104068717Y-31543738D01*
X104164501Y-31530013D01*
X104257670Y-31512480D01*
X104348170Y-31491189D01*
X104435947Y-31466190D01*
X104520946Y-31437533D01*
X104603113Y-31405270D01*
X104682394Y-31369450D01*
X104758734Y-31330124D01*
X104832080Y-31287341D01*
X104902377Y-31241154D01*
X104969570Y-31191611D01*
X105033607Y-31138764D01*
X105094431Y-31082662D01*
X105151990Y-31023356D01*
X105206228Y-30960897D01*
X105257092Y-30895334D01*
X105304527Y-30826719D01*
X105348479Y-30755102D01*
X105388894Y-30680532D01*
X105425717Y-30603061D01*
X105458895Y-30522738D01*
X105488372Y-30439615D01*
X105514096Y-30353741D01*
X105536010Y-30265167D01*
X105554062Y-30173944D01*
X105568197Y-30080121D01*
X105578360Y-29983749D01*
X105584498Y-29884878D01*
X105586556Y-29783560D01*
X105584602Y-29686187D01*
X105578775Y-29591207D01*
X105569133Y-29498660D01*
X105555729Y-29408581D01*
X105538621Y-29321008D01*
X105517862Y-29235979D01*
X105493510Y-29153532D01*
X105465619Y-29073703D01*
X105434245Y-28996530D01*
X105399444Y-28922051D01*
X105361270Y-28850303D01*
X105319781Y-28781324D01*
X105275030Y-28715151D01*
X105227074Y-28651821D01*
X105175969Y-28591372D01*
X105121770Y-28533842D01*
X105064532Y-28479268D01*
X105004311Y-28427687D01*
X104941162Y-28379136D01*
X104875142Y-28333654D01*
X104806305Y-28291278D01*
X104734707Y-28252045D01*
X104660404Y-28215993D01*
X104583452Y-28183159D01*
X104503905Y-28153581D01*
X104421820Y-28127295D01*
X104337252Y-28104340D01*
X104250256Y-28084753D01*
X104160889Y-28068572D01*
X104069205Y-28055833D01*
X103975260Y-28046575D01*
X103879110Y-28040835D01*
X103879116Y-27271777D01*
X104015177Y-27279163D01*
G37*
X106228615Y-49327444D02*
X106228615Y-50110611D01*
X101303835Y-50110611D01*
X101303835Y-49398001D01*
X105078561Y-49376834D01*
X101303835Y-46766278D01*
X101303835Y-46025445D01*
X106228615Y-49327444D01*
G36*
X106228615Y-49327444D02*
G01*
X106228615Y-50110611D01*
X101303835Y-50110611D01*
X101303835Y-49398001D01*
X105078561Y-49376834D01*
X101303835Y-46766278D01*
X101303835Y-46025445D01*
X106228615Y-49327444D01*
G37*
X106228615Y-62471954D02*
X102919558Y-62471954D01*
X102919558Y-61717010D01*
X106228615Y-61717010D01*
X106228615Y-62471954D01*
G36*
X106228615Y-62471954D02*
G01*
X102919558Y-62471954D01*
X102919558Y-61717010D01*
X106228615Y-61717010D01*
X106228615Y-62471954D01*
G37*
X101875332Y-39153335D02*
X101303829Y-39153335D01*
X101303829Y-38384280D01*
X101875332Y-38384280D01*
X101875332Y-39153335D01*
G36*
X101875332Y-39153335D02*
G01*
X101303829Y-39153335D01*
X101303829Y-38384280D01*
X101875332Y-38384280D01*
X101875332Y-39153335D01*
G37*
X106228615Y-39146278D02*
X102771389Y-39146278D01*
X102771389Y-38384280D01*
X106228615Y-38384280D01*
X106228615Y-39146278D01*
G36*
X106228615Y-39146278D02*
G01*
X102771389Y-39146278D01*
X102771389Y-38384280D01*
X106228615Y-38384280D01*
X106228615Y-39146278D01*
G37*
X104858375Y-50929030D02*
X104958551Y-50940784D01*
X105054584Y-50957151D01*
X105146534Y-50978017D01*
X105234458Y-51003271D01*
X105318415Y-51032800D01*
X105398462Y-51066491D01*
X105474658Y-51104232D01*
X105547062Y-51145911D01*
X105615730Y-51191416D01*
X105680721Y-51240633D01*
X105742094Y-51293451D01*
X105799906Y-51349757D01*
X105854216Y-51409439D01*
X105905082Y-51472384D01*
X105952562Y-51538480D01*
X105996714Y-51607615D01*
X106037595Y-51679676D01*
X106075266Y-51754551D01*
X106109782Y-51832127D01*
X106141203Y-51912292D01*
X106169587Y-51994934D01*
X106194992Y-52079940D01*
X106217476Y-52167197D01*
X106237097Y-52256595D01*
X106253913Y-52348019D01*
X106279364Y-52536498D01*
X106294293Y-52731737D01*
X106299166Y-52932836D01*
X106294333Y-53101579D01*
X106279681Y-53270746D01*
X106254983Y-53438775D01*
X106220011Y-53604107D01*
X106174540Y-53765181D01*
X106118340Y-53920436D01*
X106051184Y-54068312D01*
X105972846Y-54207248D01*
X105929412Y-54272875D01*
X105883098Y-54335682D01*
X105833874Y-54395474D01*
X105781712Y-54452056D01*
X105726584Y-54505232D01*
X105668461Y-54554808D01*
X105607315Y-54600588D01*
X105543118Y-54642377D01*
X105475841Y-54679980D01*
X105405455Y-54713203D01*
X105331933Y-54741850D01*
X105255245Y-54765725D01*
X105175364Y-54784635D01*
X105092260Y-54798383D01*
X105005907Y-54806775D01*
X104916274Y-54809616D01*
X104838456Y-54807628D01*
X104763698Y-54801738D01*
X104691916Y-54792053D01*
X104623027Y-54778679D01*
X104556950Y-54761723D01*
X104493602Y-54741294D01*
X104432899Y-54717498D01*
X104374760Y-54690443D01*
X104319101Y-54660235D01*
X104265840Y-54626982D01*
X104214894Y-54590792D01*
X104166180Y-54551770D01*
X104119616Y-54510026D01*
X104075120Y-54465665D01*
X104032607Y-54418796D01*
X103991997Y-54369525D01*
X103953205Y-54317959D01*
X103916149Y-54264206D01*
X103880748Y-54208374D01*
X103846917Y-54150568D01*
X103783638Y-54029468D01*
X103725650Y-53901763D01*
X103672293Y-53768312D01*
X103622905Y-53629972D01*
X103576824Y-53487602D01*
X103533388Y-53342059D01*
X103510209Y-53270346D01*
X103488188Y-53198302D01*
X103446956Y-53054545D01*
X103371108Y-52777615D01*
X103325673Y-52624804D01*
X103272219Y-52462651D01*
X103241631Y-52380525D01*
X103208015Y-52299009D01*
X103171030Y-52219084D01*
X103130335Y-52141733D01*
X103085588Y-52067937D01*
X103036449Y-51998679D01*
X102982577Y-51934939D01*
X102953759Y-51905446D01*
X102923630Y-51877701D01*
X102892147Y-51851826D01*
X102859267Y-51827945D01*
X102824948Y-51806180D01*
X102789148Y-51786653D01*
X102751823Y-51769489D01*
X102712931Y-51754809D01*
X102672429Y-51742735D01*
X102630275Y-51733392D01*
X102609108Y-51006671D01*
X102679112Y-51013042D01*
X102746301Y-51022835D01*
X102810753Y-51035955D01*
X102872548Y-51052311D01*
X102931764Y-51071808D01*
X102988481Y-51094354D01*
X103042776Y-51119857D01*
X103094729Y-51148222D01*
X103144419Y-51179357D01*
X103191924Y-51213168D01*
X103237324Y-51249564D01*
X103280696Y-51288451D01*
X103322120Y-51329735D01*
X103361675Y-51373324D01*
X103399439Y-51419125D01*
X103435492Y-51467044D01*
X103469911Y-51516990D01*
X103502776Y-51568868D01*
X103534166Y-51622585D01*
X103564159Y-51678050D01*
X103620272Y-51793847D01*
X103671743Y-51915514D01*
X103719204Y-52042307D01*
X103763286Y-52173483D01*
X103804618Y-52308297D01*
X103843831Y-52446005D01*
X103866707Y-52515389D01*
X103887929Y-52585683D01*
X103907828Y-52656473D01*
X103926735Y-52727345D01*
X103962896Y-52867685D01*
X103999056Y-53003396D01*
X104090779Y-53267979D01*
X104135977Y-53392333D01*
X104158989Y-53452525D01*
X104182497Y-53511395D01*
X104211047Y-53567414D01*
X104241230Y-53621541D01*
X104273190Y-53673539D01*
X104307073Y-53723171D01*
X104343022Y-53770198D01*
X104381184Y-53814383D01*
X104421701Y-53855488D01*
X104464720Y-53893276D01*
X104487213Y-53910851D01*
X104510385Y-53927508D01*
X104534254Y-53943217D01*
X104558840Y-53957947D01*
X104584159Y-53971670D01*
X104610230Y-53984355D01*
X104637071Y-53995974D01*
X104664700Y-54006495D01*
X104693135Y-54015890D01*
X104722395Y-54024129D01*
X104752497Y-54031182D01*
X104783459Y-54037019D01*
X104815300Y-54041611D01*
X104848037Y-54044927D01*
X104881689Y-54046939D01*
X104916274Y-54047616D01*
X104975051Y-54045479D01*
X105031035Y-54039200D01*
X105084289Y-54028978D01*
X105134872Y-54015012D01*
X105182845Y-53997501D01*
X105228270Y-53976644D01*
X105271206Y-53952640D01*
X105311715Y-53925687D01*
X105349857Y-53895986D01*
X105385693Y-53863734D01*
X105419284Y-53829131D01*
X105450690Y-53792376D01*
X105479972Y-53753667D01*
X105507191Y-53713204D01*
X105532408Y-53671186D01*
X105555683Y-53627811D01*
X105577077Y-53583278D01*
X105596650Y-53537787D01*
X105614465Y-53491536D01*
X105630580Y-53444724D01*
X105657956Y-53350215D01*
X105679266Y-53255850D01*
X105694995Y-53163221D01*
X105705628Y-53073921D01*
X105711652Y-52989539D01*
X105713552Y-52911669D01*
X105710217Y-52799831D01*
X105700102Y-52689668D01*
X105683042Y-52581860D01*
X105658871Y-52477091D01*
X105627424Y-52376043D01*
X105588535Y-52279398D01*
X105566249Y-52232940D01*
X105542040Y-52187838D01*
X105515888Y-52144178D01*
X105487772Y-52102045D01*
X105457672Y-52061524D01*
X105425567Y-52022701D01*
X105391437Y-51985660D01*
X105355260Y-51950488D01*
X105317015Y-51917269D01*
X105276684Y-51886089D01*
X105234243Y-51857032D01*
X105189674Y-51830185D01*
X105142955Y-51805632D01*
X105094066Y-51783459D01*
X105042985Y-51763751D01*
X104989693Y-51746593D01*
X104934169Y-51732071D01*
X104876391Y-51720269D01*
X104816340Y-51711274D01*
X104753994Y-51705169D01*
X104754000Y-50922000D01*
X104858375Y-50929030D01*
G36*
X104858375Y-50929030D02*
G01*
X104958551Y-50940784D01*
X105054584Y-50957151D01*
X105146534Y-50978017D01*
X105234458Y-51003271D01*
X105318415Y-51032800D01*
X105398462Y-51066491D01*
X105474658Y-51104232D01*
X105547062Y-51145911D01*
X105615730Y-51191416D01*
X105680721Y-51240633D01*
X105742094Y-51293451D01*
X105799906Y-51349757D01*
X105854216Y-51409439D01*
X105905082Y-51472384D01*
X105952562Y-51538480D01*
X105996714Y-51607615D01*
X106037595Y-51679676D01*
X106075266Y-51754551D01*
X106109782Y-51832127D01*
X106141203Y-51912292D01*
X106169587Y-51994934D01*
X106194992Y-52079940D01*
X106217476Y-52167197D01*
X106237097Y-52256595D01*
X106253913Y-52348019D01*
X106279364Y-52536498D01*
X106294293Y-52731737D01*
X106299166Y-52932836D01*
X106294333Y-53101579D01*
X106279681Y-53270746D01*
X106254983Y-53438775D01*
X106220011Y-53604107D01*
X106174540Y-53765181D01*
X106118340Y-53920436D01*
X106051184Y-54068312D01*
X105972846Y-54207248D01*
X105929412Y-54272875D01*
X105883098Y-54335682D01*
X105833874Y-54395474D01*
X105781712Y-54452056D01*
X105726584Y-54505232D01*
X105668461Y-54554808D01*
X105607315Y-54600588D01*
X105543118Y-54642377D01*
X105475841Y-54679980D01*
X105405455Y-54713203D01*
X105331933Y-54741850D01*
X105255245Y-54765725D01*
X105175364Y-54784635D01*
X105092260Y-54798383D01*
X105005907Y-54806775D01*
X104916274Y-54809616D01*
X104838456Y-54807628D01*
X104763698Y-54801738D01*
X104691916Y-54792053D01*
X104623027Y-54778679D01*
X104556950Y-54761723D01*
X104493602Y-54741294D01*
X104432899Y-54717498D01*
X104374760Y-54690443D01*
X104319101Y-54660235D01*
X104265840Y-54626982D01*
X104214894Y-54590792D01*
X104166180Y-54551770D01*
X104119616Y-54510026D01*
X104075120Y-54465665D01*
X104032607Y-54418796D01*
X103991997Y-54369525D01*
X103953205Y-54317959D01*
X103916149Y-54264206D01*
X103880748Y-54208374D01*
X103846917Y-54150568D01*
X103783638Y-54029468D01*
X103725650Y-53901763D01*
X103672293Y-53768312D01*
X103622905Y-53629972D01*
X103576824Y-53487602D01*
X103533388Y-53342059D01*
X103510209Y-53270346D01*
X103488188Y-53198302D01*
X103446956Y-53054545D01*
X103371108Y-52777615D01*
X103325673Y-52624804D01*
X103272219Y-52462651D01*
X103241631Y-52380525D01*
X103208015Y-52299009D01*
X103171030Y-52219084D01*
X103130335Y-52141733D01*
X103085588Y-52067937D01*
X103036449Y-51998679D01*
X102982577Y-51934939D01*
X102953759Y-51905446D01*
X102923630Y-51877701D01*
X102892147Y-51851826D01*
X102859267Y-51827945D01*
X102824948Y-51806180D01*
X102789148Y-51786653D01*
X102751823Y-51769489D01*
X102712931Y-51754809D01*
X102672429Y-51742735D01*
X102630275Y-51733392D01*
X102609108Y-51006671D01*
X102679112Y-51013042D01*
X102746301Y-51022835D01*
X102810753Y-51035955D01*
X102872548Y-51052311D01*
X102931764Y-51071808D01*
X102988481Y-51094354D01*
X103042776Y-51119857D01*
X103094729Y-51148222D01*
X103144419Y-51179357D01*
X103191924Y-51213168D01*
X103237324Y-51249564D01*
X103280696Y-51288451D01*
X103322120Y-51329735D01*
X103361675Y-51373324D01*
X103399439Y-51419125D01*
X103435492Y-51467044D01*
X103469911Y-51516990D01*
X103502776Y-51568868D01*
X103534166Y-51622585D01*
X103564159Y-51678050D01*
X103620272Y-51793847D01*
X103671743Y-51915514D01*
X103719204Y-52042307D01*
X103763286Y-52173483D01*
X103804618Y-52308297D01*
X103843831Y-52446005D01*
X103866707Y-52515389D01*
X103887929Y-52585683D01*
X103907828Y-52656473D01*
X103926735Y-52727345D01*
X103962896Y-52867685D01*
X103999056Y-53003396D01*
X104090779Y-53267979D01*
X104135977Y-53392333D01*
X104158989Y-53452525D01*
X104182497Y-53511395D01*
X104211047Y-53567414D01*
X104241230Y-53621541D01*
X104273190Y-53673539D01*
X104307073Y-53723171D01*
X104343022Y-53770198D01*
X104381184Y-53814383D01*
X104421701Y-53855488D01*
X104464720Y-53893276D01*
X104487213Y-53910851D01*
X104510385Y-53927508D01*
X104534254Y-53943217D01*
X104558840Y-53957947D01*
X104584159Y-53971670D01*
X104610230Y-53984355D01*
X104637071Y-53995974D01*
X104664700Y-54006495D01*
X104693135Y-54015890D01*
X104722395Y-54024129D01*
X104752497Y-54031182D01*
X104783459Y-54037019D01*
X104815300Y-54041611D01*
X104848037Y-54044927D01*
X104881689Y-54046939D01*
X104916274Y-54047616D01*
X104975051Y-54045479D01*
X105031035Y-54039200D01*
X105084289Y-54028978D01*
X105134872Y-54015012D01*
X105182845Y-53997501D01*
X105228270Y-53976644D01*
X105271206Y-53952640D01*
X105311715Y-53925687D01*
X105349857Y-53895986D01*
X105385693Y-53863734D01*
X105419284Y-53829131D01*
X105450690Y-53792376D01*
X105479972Y-53753667D01*
X105507191Y-53713204D01*
X105532408Y-53671186D01*
X105555683Y-53627811D01*
X105577077Y-53583278D01*
X105596650Y-53537787D01*
X105614465Y-53491536D01*
X105630580Y-53444724D01*
X105657956Y-53350215D01*
X105679266Y-53255850D01*
X105694995Y-53163221D01*
X105705628Y-53073921D01*
X105711652Y-52989539D01*
X105713552Y-52911669D01*
X105710217Y-52799831D01*
X105700102Y-52689668D01*
X105683042Y-52581860D01*
X105658871Y-52477091D01*
X105627424Y-52376043D01*
X105588535Y-52279398D01*
X105566249Y-52232940D01*
X105542040Y-52187838D01*
X105515888Y-52144178D01*
X105487772Y-52102045D01*
X105457672Y-52061524D01*
X105425567Y-52022701D01*
X105391437Y-51985660D01*
X105355260Y-51950488D01*
X105317015Y-51917269D01*
X105276684Y-51886089D01*
X105234243Y-51857032D01*
X105189674Y-51830185D01*
X105142955Y-51805632D01*
X105094066Y-51783459D01*
X105042985Y-51763751D01*
X104989693Y-51746593D01*
X104934169Y-51732071D01*
X104876391Y-51720269D01*
X104816340Y-51711274D01*
X104753994Y-51705169D01*
X104754000Y-50922000D01*
X104858375Y-50929030D01*
G37*
X106228615Y-33896945D02*
X103857943Y-33896945D01*
X102799611Y-33163165D01*
X106228615Y-33163165D01*
X106228615Y-33896945D01*
G36*
X106228615Y-33896945D02*
G01*
X103857943Y-33896945D01*
X102799611Y-33163165D01*
X106228615Y-33163165D01*
X106228615Y-33896945D01*
G37*
X104015177Y-40084994D02*
X104148140Y-40097833D01*
X104277924Y-40116038D01*
X104404451Y-40139524D01*
X104527639Y-40168203D01*
X104647409Y-40201988D01*
X104763681Y-40240795D01*
X104876374Y-40284535D01*
X104985408Y-40333122D01*
X105090704Y-40386470D01*
X105192180Y-40444492D01*
X105289758Y-40507101D01*
X105383356Y-40574212D01*
X105472896Y-40645737D01*
X105558296Y-40721590D01*
X105639477Y-40801685D01*
X105716358Y-40885934D01*
X105788860Y-40974251D01*
X105856902Y-41066550D01*
X105920404Y-41162744D01*
X105979286Y-41262747D01*
X106033469Y-41366472D01*
X106082871Y-41473832D01*
X106127413Y-41584741D01*
X106167015Y-41699112D01*
X106201596Y-41816859D01*
X106231077Y-41937896D01*
X106255378Y-42062134D01*
X106274418Y-42189490D01*
X106288117Y-42319874D01*
X106296395Y-42453202D01*
X106299172Y-42589386D01*
X106296432Y-42732599D01*
X106288244Y-42872468D01*
X106274662Y-43008913D01*
X106255736Y-43141856D01*
X106231519Y-43271217D01*
X106202062Y-43396919D01*
X106167417Y-43518882D01*
X106127634Y-43637027D01*
X106082767Y-43751275D01*
X106032867Y-43861549D01*
X105977985Y-43967768D01*
X105918173Y-44069855D01*
X105853483Y-44167730D01*
X105783966Y-44261315D01*
X105709674Y-44350530D01*
X105630659Y-44435297D01*
X105546973Y-44515538D01*
X105458666Y-44591172D01*
X105365792Y-44662123D01*
X105268401Y-44728310D01*
X105166545Y-44789655D01*
X105060275Y-44846079D01*
X104949645Y-44897503D01*
X104834704Y-44943849D01*
X104715505Y-44985037D01*
X104592100Y-45020990D01*
X104464540Y-45051627D01*
X104332876Y-45076871D01*
X104197162Y-45096642D01*
X104057447Y-45110862D01*
X103913784Y-45119452D01*
X103766225Y-45122332D01*
X103625615Y-45119475D01*
X103488259Y-45110965D01*
X103354229Y-45096898D01*
X103223595Y-45077367D01*
X103096429Y-45052467D01*
X102972801Y-45022292D01*
X102852783Y-44986936D01*
X102736445Y-44946494D01*
X102623859Y-44901060D01*
X102515096Y-44850729D01*
X102410226Y-44795594D01*
X102309322Y-44735750D01*
X102212453Y-44671292D01*
X102119691Y-44602313D01*
X102031108Y-44528908D01*
X101946773Y-44451171D01*
X101866759Y-44369197D01*
X101791136Y-44283079D01*
X101719975Y-44192913D01*
X101653347Y-44098792D01*
X101591324Y-44000811D01*
X101533976Y-43899064D01*
X101481375Y-43793646D01*
X101433591Y-43684650D01*
X101390696Y-43572171D01*
X101352760Y-43456303D01*
X101319855Y-43337142D01*
X101292052Y-43214780D01*
X101269422Y-43089312D01*
X101252035Y-42960833D01*
X101239964Y-42829437D01*
X101233278Y-42695217D01*
X101952944Y-42695217D01*
X101958806Y-42790646D01*
X101968425Y-42883754D01*
X101981750Y-42974495D01*
X101998736Y-43062823D01*
X102019334Y-43148691D01*
X102043497Y-43232053D01*
X102071176Y-43312862D01*
X102102323Y-43391072D01*
X102136892Y-43466636D01*
X102174834Y-43539508D01*
X102216101Y-43609640D01*
X102260646Y-43676988D01*
X102308421Y-43741503D01*
X102359377Y-43803140D01*
X102413468Y-43861853D01*
X102470645Y-43917593D01*
X102530860Y-43970316D01*
X102594067Y-44019975D01*
X102660216Y-44066522D01*
X102729261Y-44109913D01*
X102801153Y-44150099D01*
X102875844Y-44187035D01*
X102953287Y-44220673D01*
X103033435Y-44250969D01*
X103116238Y-44277874D01*
X103201650Y-44301343D01*
X103289622Y-44321329D01*
X103380107Y-44337785D01*
X103473057Y-44350665D01*
X103568424Y-44359923D01*
X103666161Y-44365512D01*
X103766219Y-44367385D01*
X103869522Y-44365389D01*
X103970373Y-44359432D01*
X104068717Y-44349567D01*
X104164501Y-44335842D01*
X104257670Y-44318309D01*
X104348170Y-44297018D01*
X104435947Y-44272018D01*
X104520946Y-44243362D01*
X104603113Y-44211098D01*
X104682394Y-44175278D01*
X104758734Y-44135951D01*
X104832080Y-44093169D01*
X104902377Y-44046981D01*
X104969570Y-43997438D01*
X105033607Y-43944591D01*
X105094431Y-43888489D01*
X105151990Y-43829183D01*
X105206228Y-43766723D01*
X105257092Y-43701161D01*
X105304527Y-43632545D01*
X105348479Y-43560927D01*
X105388894Y-43486358D01*
X105425717Y-43408886D01*
X105458895Y-43328563D01*
X105488372Y-43245440D01*
X105514096Y-43159566D01*
X105536010Y-43070991D01*
X105554062Y-42979768D01*
X105568197Y-42885944D01*
X105578360Y-42789572D01*
X105584498Y-42690701D01*
X105586556Y-42589383D01*
X105584602Y-42492010D01*
X105578775Y-42397031D01*
X105569133Y-42304483D01*
X105555729Y-42214404D01*
X105538621Y-42126832D01*
X105517862Y-42041803D01*
X105493510Y-41959356D01*
X105465619Y-41879527D01*
X105434245Y-41802354D01*
X105399444Y-41727875D01*
X105361270Y-41656128D01*
X105319781Y-41587148D01*
X105275030Y-41520975D01*
X105227074Y-41457645D01*
X105175969Y-41397197D01*
X105121770Y-41339666D01*
X105064532Y-41285092D01*
X105004311Y-41233511D01*
X104941162Y-41184961D01*
X104875142Y-41139479D01*
X104806305Y-41097103D01*
X104734707Y-41057870D01*
X104660404Y-41021818D01*
X104583452Y-40988983D01*
X104503905Y-40959405D01*
X104421820Y-40933120D01*
X104337252Y-40910165D01*
X104250256Y-40890578D01*
X104160889Y-40874397D01*
X104069205Y-40861659D01*
X103975260Y-40852401D01*
X103879110Y-40846661D01*
X103879116Y-40077609D01*
X104015177Y-40084994D01*
G36*
X104015177Y-40084994D02*
G01*
X104148140Y-40097833D01*
X104277924Y-40116038D01*
X104404451Y-40139524D01*
X104527639Y-40168203D01*
X104647409Y-40201988D01*
X104763681Y-40240795D01*
X104876374Y-40284535D01*
X104985408Y-40333122D01*
X105090704Y-40386470D01*
X105192180Y-40444492D01*
X105289758Y-40507101D01*
X105383356Y-40574212D01*
X105472896Y-40645737D01*
X105558296Y-40721590D01*
X105639477Y-40801685D01*
X105716358Y-40885934D01*
X105788860Y-40974251D01*
X105856902Y-41066550D01*
X105920404Y-41162744D01*
X105979286Y-41262747D01*
X106033469Y-41366472D01*
X106082871Y-41473832D01*
X106127413Y-41584741D01*
X106167015Y-41699112D01*
X106201596Y-41816859D01*
X106231077Y-41937896D01*
X106255378Y-42062134D01*
X106274418Y-42189490D01*
X106288117Y-42319874D01*
X106296395Y-42453202D01*
X106299172Y-42589386D01*
X106296432Y-42732599D01*
X106288244Y-42872468D01*
X106274662Y-43008913D01*
X106255736Y-43141856D01*
X106231519Y-43271217D01*
X106202062Y-43396919D01*
X106167417Y-43518882D01*
X106127634Y-43637027D01*
X106082767Y-43751275D01*
X106032867Y-43861549D01*
X105977985Y-43967768D01*
X105918173Y-44069855D01*
X105853483Y-44167730D01*
X105783966Y-44261315D01*
X105709674Y-44350530D01*
X105630659Y-44435297D01*
X105546973Y-44515538D01*
X105458666Y-44591172D01*
X105365792Y-44662123D01*
X105268401Y-44728310D01*
X105166545Y-44789655D01*
X105060275Y-44846079D01*
X104949645Y-44897503D01*
X104834704Y-44943849D01*
X104715505Y-44985037D01*
X104592100Y-45020990D01*
X104464540Y-45051627D01*
X104332876Y-45076871D01*
X104197162Y-45096642D01*
X104057447Y-45110862D01*
X103913784Y-45119452D01*
X103766225Y-45122332D01*
X103625615Y-45119475D01*
X103488259Y-45110965D01*
X103354229Y-45096898D01*
X103223595Y-45077367D01*
X103096429Y-45052467D01*
X102972801Y-45022292D01*
X102852783Y-44986936D01*
X102736445Y-44946494D01*
X102623859Y-44901060D01*
X102515096Y-44850729D01*
X102410226Y-44795594D01*
X102309322Y-44735750D01*
X102212453Y-44671292D01*
X102119691Y-44602313D01*
X102031108Y-44528908D01*
X101946773Y-44451171D01*
X101866759Y-44369197D01*
X101791136Y-44283079D01*
X101719975Y-44192913D01*
X101653347Y-44098792D01*
X101591324Y-44000811D01*
X101533976Y-43899064D01*
X101481375Y-43793646D01*
X101433591Y-43684650D01*
X101390696Y-43572171D01*
X101352760Y-43456303D01*
X101319855Y-43337142D01*
X101292052Y-43214780D01*
X101269422Y-43089312D01*
X101252035Y-42960833D01*
X101239964Y-42829437D01*
X101233278Y-42695217D01*
X101952944Y-42695217D01*
X101958806Y-42790646D01*
X101968425Y-42883754D01*
X101981750Y-42974495D01*
X101998736Y-43062823D01*
X102019334Y-43148691D01*
X102043497Y-43232053D01*
X102071176Y-43312862D01*
X102102323Y-43391072D01*
X102136892Y-43466636D01*
X102174834Y-43539508D01*
X102216101Y-43609640D01*
X102260646Y-43676988D01*
X102308421Y-43741503D01*
X102359377Y-43803140D01*
X102413468Y-43861853D01*
X102470645Y-43917593D01*
X102530860Y-43970316D01*
X102594067Y-44019975D01*
X102660216Y-44066522D01*
X102729261Y-44109913D01*
X102801153Y-44150099D01*
X102875844Y-44187035D01*
X102953287Y-44220673D01*
X103033435Y-44250969D01*
X103116238Y-44277874D01*
X103201650Y-44301343D01*
X103289622Y-44321329D01*
X103380107Y-44337785D01*
X103473057Y-44350665D01*
X103568424Y-44359923D01*
X103666161Y-44365512D01*
X103766219Y-44367385D01*
X103869522Y-44365389D01*
X103970373Y-44359432D01*
X104068717Y-44349567D01*
X104164501Y-44335842D01*
X104257670Y-44318309D01*
X104348170Y-44297018D01*
X104435947Y-44272018D01*
X104520946Y-44243362D01*
X104603113Y-44211098D01*
X104682394Y-44175278D01*
X104758734Y-44135951D01*
X104832080Y-44093169D01*
X104902377Y-44046981D01*
X104969570Y-43997438D01*
X105033607Y-43944591D01*
X105094431Y-43888489D01*
X105151990Y-43829183D01*
X105206228Y-43766723D01*
X105257092Y-43701161D01*
X105304527Y-43632545D01*
X105348479Y-43560927D01*
X105388894Y-43486358D01*
X105425717Y-43408886D01*
X105458895Y-43328563D01*
X105488372Y-43245440D01*
X105514096Y-43159566D01*
X105536010Y-43070991D01*
X105554062Y-42979768D01*
X105568197Y-42885944D01*
X105578360Y-42789572D01*
X105584498Y-42690701D01*
X105586556Y-42589383D01*
X105584602Y-42492010D01*
X105578775Y-42397031D01*
X105569133Y-42304483D01*
X105555729Y-42214404D01*
X105538621Y-42126832D01*
X105517862Y-42041803D01*
X105493510Y-41959356D01*
X105465619Y-41879527D01*
X105434245Y-41802354D01*
X105399444Y-41727875D01*
X105361270Y-41656128D01*
X105319781Y-41587148D01*
X105275030Y-41520975D01*
X105227074Y-41457645D01*
X105175969Y-41397197D01*
X105121770Y-41339666D01*
X105064532Y-41285092D01*
X105004311Y-41233511D01*
X104941162Y-41184961D01*
X104875142Y-41139479D01*
X104806305Y-41097103D01*
X104734707Y-41057870D01*
X104660404Y-41021818D01*
X104583452Y-40988983D01*
X104503905Y-40959405D01*
X104421820Y-40933120D01*
X104337252Y-40910165D01*
X104250256Y-40890578D01*
X104160889Y-40874397D01*
X104069205Y-40861659D01*
X103975260Y-40852401D01*
X103879110Y-40846661D01*
X103879116Y-40077609D01*
X104015177Y-40084994D01*
G37*
M02*
